<?xml version="1.0" encoding="UTF-8"?>
<!-- Generated by jsxcad -->
<!DOCTYPE svg PUBLIC "-//W3C//DTD SVG 1.1 Tiny//EN" "http://www.w3.org/Graphics/SVG/1.1/DTD/svg11-tiny.dtd">
<svg viewBox="-250 -250 500 500" width="500" height="500" xmlns="http://www.w3.org/2000/svg"><path d="M67.44901563149442,95.85813455525482L58.58940452676016,78.06669020655204L68.46999771740217,98.00444432340905z" style="fill:rgb(242,183,130)"/><path d="M40.91218144493379,113.88406878728865L28.927103326598193,92.38367677725961L39.41303318588661,112.00927809343577z" style="fill:rgb(21,57,142)"/><path d="M68.46999771740217,98.00444432340905L59.022253525364,80.45635699441766L68.91586889368624,100.38892899326538z" style="fill:rgb(246,167,149)"/><path d="M42.901899314901364,115.38254214384031L30.433827609334774,94.25295674781512L40.91218144493379,113.88406878728865z" style="fill:rgb(34,46,160)"/><path d="M68.91586889368624,100.38892899326538L58.84762251638672,82.99920807310089L68.76549074367263,102.92050047882182z" style="fill:rgb(246,149,167)"/><path d="M27.977235098655342,90.20697174792585L39.76055970327241,72.60739692379082L36.876949463924724,74.0003860871829zM27.977235098655342,90.20697174792585L36.876949463924724,74.0003860871829L34.234989505405856,75.77926645308872zM27.977235098655342,90.20697174792585L42.77888252712729,71.65207197385203L39.76055970327241,72.60739692379082z" style="fill:rgb(83,212,212)"/><path d="M45.3076777321707,116.44383144882718L32.442792762526324,95.7402105762275L42.901899314901364,115.38254214384031z" style="fill:rgb(51,38,177)"/><path d="M27.977235098655342,90.20697174792585L34.234989505405856,75.77926645308872L31.93306514535235,77.87838938528442zM27.977235098655342,90.20697174792585L45.81994913410369,71.1706065859722L42.77888252712729,71.65207197385203zM27.977235098655342,90.20697174792585L31.93306514535235,77.87838938528442L30.057681192470167,80.22037323360544zM27.977235098655342,90.20697174792585L48.7704859462907,71.1822794266513L45.81994913410369,71.1706065859722z" style="fill:rgb(83,212,212)"/><path d="M67.44901563149442,95.85813455525482L57.569845120138524,75.9214424677016L58.58940452676016,78.06669020655204z" style="fill:rgb(242,183,130)"/><path d="M68.76549074367263,102.92050047882182L58.068491132402606,85.59676143559989L68.02106648646237,105.50108366512582z" style="fill:rgb(242,130,183)"/><path d="M27.977235098655342,90.20697174792585L30.057681192470167,80.22037323360544L28.680448935281046,82.71859410616464z" style="fill:rgb(83,212,212)"/><path d="M48.037518911721996,117.02376764665324L34.87885266214055,96.784915119471L45.3076777321707,116.44383144882718z" style="fill:rgb(71,33,192)"/><path d="M27.977235098655342,90.20697174792585L51.51970315584361,71.68862581845781L48.7704859462907,71.1822794266513zM27.977235098655342,90.20697174792585L28.680448935281046,82.71859410616464L27.85539247315804,85.2799857263644z" style="fill:rgb(83,212,212)"/><path d="M68.02106648646237,105.50108366512582L56.71209711869318,88.14715832753062L66.70856588997584,108.02950523922013z" style="fill:rgb(233,112,197)"/><path d="M40.91218144493379,113.88406878728865L30.433827609334774,94.25295674781512L28.927103326598193,92.38367677725961z" style="fill:rgb(21,57,142)"/><path d="M27.977235098655342,90.20697174792585L53.9631885269285,72.67308422430817L51.51970315584361,71.68862581845781z" style="fill:rgb(83,212,212)"/><path d="M50.98540008030081,117.09707399507813L37.64890511786864,97.34344864145953L48.037518911721996,117.02376764665324z" style="fill:rgb(92,32,204)"/><path d="M68.46999771740217,98.00444432340905L58.58940452676016,78.06669020655204L59.022253525364,80.45635699441766z" style="fill:rgb(246,167,149)"/><path d="M27.977235098655342,90.20697174792585L27.85539247315804,85.2799857263644L27.616743048585253,87.80820063582627z" style="fill:rgb(83,212,212)"/><path d="M66.70856588997584,108.02950523922013L54.829296810584324,90.54939181989852L64.87718702909827,110.40567127555235z" style="fill:rgb(220,94,208)"/><path d="M54.035495598419104,116.6588373794684L40.64535827341358,97.39129067155491L50.98540008030081,117.09707399507813z" style="fill:rgb(115,34,214)"/><path d="M27.977235098655342,90.20697174792585L56.006703442516184,74.10120298974053L53.9631885269285,72.67308422430817z" style="fill:rgb(83,212,212)"/><path d="M64.87718702909827,110.40567127555235L52.49282477438633,92.70767002588158L62.59764557182021,112.53485586345603z" style="fill:rgb(203,77,216)"/><path d="M57.0670149911132,115.7250035619646L43.75044547175314,96.92446899138105L54.035495598419104,116.6588373794684z" style="fill:rgb(139,40,220)"/><path d="M42.901899314901364,115.38254214384031L32.442792762526324,95.7402105762275L30.433827609334774,94.25295674781512z" style="fill:rgb(34,46,160)"/><path d="M68.91586889368624,100.38892899326538L59.022253525364,80.45635699441766L58.84762251638672,82.99920807310089z" style="fill:rgb(246,149,167)"/><path d="M62.59764557182021,112.53485586345603L49.794448135521115,94.53558571984507L59.959412832108015,114.33190979799619z" style="fill:rgb(183,62,221)"/><path d="M59.959412832108015,114.33190979799619L46.84113374775541,95.96004226267029L57.0670149911132,115.7250035619646z" style="fill:rgb(162,50,222)"/><path d="M27.977235098655342,90.20697174792585L57.569845120138524,75.9214424677016L56.006703442516184,74.10120298974053z" style="fill:rgb(83,212,212)"/><path d="M45.3076777321707,116.44383144882718L34.87885266214055,96.784915119471L32.442792762526324,95.7402105762275z" style="fill:rgb(51,38,177)"/><path d="M68.76549074367263,102.92050047882182L58.84762251638672,82.99920807310089L58.068491132402606,85.59676143559989z" style="fill:rgb(242,130,183)"/><path d="M27.977235098655342,90.20697174792585L58.58940452676016,78.06669020655204L57.569845120138524,75.9214424677016z" style="fill:rgb(83,212,212)"/><path d="M70.21771922556285,14.735347075189305L85.75736271903514,48.99620877038237L85.76084513778444,48.995371033157575z" style="fill:rgb(127,37,217)"/><path d="M27.977235098655342,90.20697174792585L28.927103326598193,92.38367677725961L30.433827609334774,94.25295674781512zM27.977235098655342,90.20697174792585L59.022253525364,80.45635699441766L58.58940452676016,78.06669020655204z" style="fill:rgb(83,212,212)"/><path d="M48.037518911721996,117.02376764665324L37.64890511786864,97.34344864145953L34.87885266214055,96.784915119471z" style="fill:rgb(71,33,192)"/><path d="M68.02106648646237,105.50108366512582L58.068491132402606,85.59676143559989L56.71209711869318,88.14715832753062z" style="fill:rgb(233,112,197)"/><path d="M27.977235098655342,90.20697174792585L30.433827609334774,94.25295674781512L32.442792762526324,95.7402105762275zM27.977235098655342,90.20697174792585L58.84762251638672,82.99920807310089L59.022253525364,80.45635699441766z" style="fill:rgb(83,212,212)"/><path d="M50.98540008030081,117.09707399507813L40.64535827341358,97.39129067155491L37.64890511786864,97.34344864145953z" style="fill:rgb(92,32,204)"/><path d="M66.70856588997584,108.02950523922013L56.71209711869318,88.14715832753062L54.829296810584324,90.54939181989852z" style="fill:rgb(220,94,208)"/><path d="M27.977235098655342,90.20697174792585L32.442792762526324,95.7402105762275L34.87885266214055,96.784915119471z" style="fill:rgb(83,212,212)"/><path d="M54.035495598419104,116.6588373794684L43.75044547175314,96.92446899138105L40.64535827341358,97.39129067155491z" style="fill:rgb(115,34,214)"/><path d="M64.87718702909827,110.40567127555235L54.829296810584324,90.54939181989852L52.49282477438633,92.70767002588158z" style="fill:rgb(203,77,216)"/><path d="M27.977235098655342,90.20697174792585L58.068491132402606,85.59676143559989L58.84762251638672,82.99920807310089z" style="fill:rgb(83,212,212)"/><path d="M57.0670149911132,115.7250035619646L46.84113374775541,95.96004226267029L43.75044547175314,96.92446899138105z" style="fill:rgb(139,40,220)"/><path d="M62.59764557182021,112.53485586345603L52.49282477438633,92.70767002588158L49.794448135521115,94.53558571984507z" style="fill:rgb(183,62,221)"/><path d="M27.977235098655342,90.20697174792585L34.87885266214055,96.784915119471L37.64890511786864,97.34344864145953z" style="fill:rgb(83,212,212)"/><path d="M59.959412832108015,114.33190979799619L49.794448135521115,94.53558571984507L46.84113374775541,95.96004226267029z" style="fill:rgb(162,50,222)"/><path d="M27.977235098655342,90.20697174792585L56.71209711869318,88.14715832753062L58.068491132402606,85.59676143559989zM27.977235098655342,90.20697174792585L37.64890511786864,97.34344864145953L40.64535827341358,97.39129067155491zM27.977235098655342,90.20697174792585L54.829296810584324,90.54939181989852L56.71209711869318,88.14715832753062zM27.977235098655342,90.20697174792585L40.64535827341358,97.39129067155491L43.75044547175314,96.92446899138105zM27.977235098655342,90.20697174792585L52.49282477438633,92.70767002588158L54.829296810584324,90.54939181989852zM27.977235098655342,90.20697174792585L43.75044547175314,96.92446899138105L46.84113374775541,95.96004226267029zM27.977235098655342,90.20697174792585L49.794448135521115,94.53558571984507L52.49282477438633,92.70767002588158zM27.977235098655342,90.20697174792585L46.84113374775541,95.96004226267029L49.794448135521115,94.53558571984507z" style="fill:rgb(83,212,212)"/><path d="M70.21771922556285,14.735347075189305L70.21413017395227,14.736242031564501L85.75736271903514,48.99620877038237z" style="fill:rgb(127,37,217)"/><path d="M85.75736271903514,48.99620877038237L70.21413017395227,14.736242031564501L73.59394861507366,65.56064490035445zM85.75736271903514,48.99620877038237L73.59394861507366,65.56064490035445L89.74123528512078,99.63758540500552z" style="fill:rgb(247,158,158)"/><path d="M-1.322025404724329,119.2769664557648L-79.89032090411888,-13.46731114884329L-6.277604293479173,112.61736646422983z" style="fill:rgb(21,57,142)"/><path d="M5.456144771198321,124.6664557458695L-74.9259867822425,-7.043140902484775L-1.322025404724329,119.2769664557648z" style="fill:rgb(34,46,160)"/><path d="M13.82377584317847,128.53835879217192L-67.85265472433619,-2.009674661571434L5.456144771198321,124.6664557458695z" style="fill:rgb(51,38,177)"/><path d="M23.46803543707651,130.70094986250922L-58.90422617588099,1.3914191894361208L13.82377584317847,128.53835879217192z" style="fill:rgb(71,33,192)"/><path d="M80.90537187729834,28.714046757489786L37.99276066595805,-62.01735333686607L82.649279342166,36.927257874816405z" style="fill:rgb(246,167,149)"/><path d="M34.0063480369667,131.03246925569823L-48.40978622444013,2.97931054390214L23.46803543707651,130.70094986250922z" style="fill:rgb(92,32,204)"/><path d="M26.977006547515433,-32.82862496805634L84.25774365436222,106.83538815791567L89.7448829990959,99.636753479324z" style="fill:rgb(220,94,208)"/><path d="M45.002473261363534,129.49235347588126L-36.784234563754474,2.6491260002283066L34.0063480369667,131.03246925569823z" style="fill:rgb(115,34,214)"/><path d="M84.25774365436222,106.83538815791567L10.863777269564718,-16.80720018732468L76.04718372445912,114.54693206860867z" style="fill:rgb(203,77,216)"/><path d="M82.649279342166,36.927257874816405L37.118047564721024,-53.08952166891752L82.19843231368928,45.812488777410884z" style="fill:rgb(246,149,167)"/><path d="M55.98800531029983,126.12760872016044L-24.511319201251464,0.38350062580699606L45.002473261363534,129.49235347588126z" style="fill:rgb(139,40,220)"/><path d="M76.04718372445912,114.54693206860867L-0.15229588062375857,-9.556197022464309L66.48783197920204,121.07338632849678z" style="fill:rgb(183,62,221)"/><path d="M66.48783197920204,121.07338632849678L-12.119481852709894,-3.741317695372377L55.98800531029983,126.12760872016044z" style="fill:rgb(162,50,222)"/><path d="M82.19843231368928,45.812488777410884L33.82846066372048,-43.71318407860887L79.52075543699682,55.021638875540106z" style="fill:rgb(242,130,183)"/><path d="M-1.322025404724329,119.2769664557648L-74.9259867822425,-7.043140902484775L-79.89032090411888,-13.46731114884329z" style="fill:rgb(21,57,142)"/><path d="M79.52075543699682,55.021638875540106L28.207451894867113,-34.272512242853594L74.6819665566296,64.17711792567438z" style="fill:rgb(233,112,197)"/><path d="M28.207451894867113,-34.272512242853594L73.59771340273805,65.55975158283698L74.6819665566296,64.17711792567438z" style="fill:rgb(220,94,208)"/><path d="M5.456144771198321,124.6664557458695L-67.85265472433619,-2.009674661571434L-74.9259867822425,-7.043140902484775z" style="fill:rgb(34,46,160)"/><path d="M80.90537187729834,28.714046757489786L36.47714904261706,-70.14928636248854L37.99276066595805,-62.01735333686607z" style="fill:rgb(246,167,149)"/><path d="M13.82377584317847,128.53835879217192L-58.90422617588099,1.3914191894361208L-67.85265472433619,-2.009674661571434z" style="fill:rgb(51,38,177)"/><path d="M-12.119481852709894,-3.741317695372377L-33.75064957785009,-83.42993398637836L-44.65022822531175,-78.10635019271531zM-12.119481852709894,-3.741317695372377L-44.65022822531175,-78.10635019271531L-54.78145500368625,-71.5748634160319zM-12.119481852709894,-3.741317695372377L-22.446151761291585,-87.366664185574L-33.75064957785009,-83.42993398637836z" style="fill:rgb(83,212,212)"/><path d="M82.649279342166,36.927257874816405L37.99276066595805,-62.01735333686607L37.118047564721024,-53.08952166891752z" style="fill:rgb(246,149,167)"/><path d="M-12.119481852709894,-3.741317695372377L-54.78145500368625,-71.5748634160319L-63.80152356464319,-64.0493820106304zM-12.119481852709894,-3.741317695372377L-11.11435355081621,-89.77596566665879L-22.446151761291585,-87.366664185574zM-12.119481852709894,-3.741317695372377L-63.80152356464319,-64.0493820106304L-71.39497468062424,-55.77558210412781z" style="fill:rgb(83,212,212)"/><path d="M23.46803543707651,130.70094986250922L-48.40978622444013,2.97931054390214L-58.90422617588099,1.3914191894361208z" style="fill:rgb(71,33,192)"/><path d="M-12.119481852709894,-3.741317695372377L-0.1403368636540234,-90.5593698613356L-11.11435355081621,-89.77596566665879zM-12.119481852709894,-3.741317695372377L-71.39497468062424,-55.77558210412781L-77.28133420831635,-47.02736634498423z" style="fill:rgb(83,212,212)"/><path d="M82.19843231368928,45.812488777410884L37.118047564721024,-53.08952166891752L33.82846066372048,-43.71318407860887z" style="fill:rgb(242,130,183)"/><path d="M-12.119481852709894,-3.741317695372377L10.091052333023713,-89.66486951658284L-0.1403368636540234,-90.5593698613356z" style="fill:rgb(83,212,212)"/><path d="M34.0063480369667,131.03246925569823L-36.784234563754474,2.6491260002283066L-48.40978622444013,2.97931054390214z" style="fill:rgb(92,32,204)"/><path d="M-12.119481852709894,-3.741317695372377L-77.28133420831635,-47.02736634498423L-81.22379138684504,-38.10250043896241z" style="fill:rgb(83,212,212)"/><path d="M26.977006547515433,-32.82862496805634L20.450925674857704,-25.170493926895496L84.25774365436222,106.83538815791567z" style="fill:rgb(220,94,208)"/><path d="M-12.119481852709894,-3.741317695372377L19.20445685064793,-87.09157627468397L10.091052333023713,-89.66486951658284z" style="fill:rgb(83,212,212)"/><path d="M45.002473261363534,129.49235347588126L-24.511319201251464,0.38350062580699606L-36.784234563754474,2.6491260002283066z" style="fill:rgb(115,34,214)"/><path d="M84.25774365436222,106.83538815791567L20.450925674857704,-25.170493926895496L10.863777269564718,-16.80720018732468z" style="fill:rgb(203,77,216)"/><path d="M79.52075543699682,55.021638875540106L33.82846066372048,-43.71318407860887L28.207451894867113,-34.272512242853594z" style="fill:rgb(233,112,197)"/><path d="M-12.119481852709894,-3.741317695372377L-81.22379138684504,-38.10250043896241L-83.03922138266874,-29.316806502841448z" style="fill:rgb(83,212,212)"/><path d="M55.98800531029983,126.12760872016044L-12.119481852709894,-3.741317695372377L-24.511319201251464,0.38350062580699606z" style="fill:rgb(139,40,220)"/><path d="M76.04718372445912,114.54693206860867L10.863777269564718,-16.80720018732468L-0.15229588062375857,-9.556197022464309z" style="fill:rgb(183,62,221)"/><path d="M66.48783197920204,121.07338632849678L-0.15229588062375857,-9.556197022464309L-12.119481852709894,-3.741317695372377z" style="fill:rgb(162,50,222)"/><path d="M-12.119481852709894,-3.741317695372377L26.84527584499306,-82.89438143520134L19.20445685064793,-87.09157627468397z" style="fill:rgb(83,212,212)"/><path d="M28.207451894867113,-34.272512242853594L26.977006547515433,-32.82862496805634L73.59771340273805,65.55975158283698z" style="fill:rgb(220,94,208)"/><path d="M-12.119481852709894,-3.741317695372377L-83.03922138266874,-29.316806502841448L-82.60904152771361,-20.99636028916538zM-12.119481852709894,-3.741317695372377L32.693112181886825,-77.18797257017256L26.84527584499306,-82.89438143520134zM-12.119481852709894,-3.741317695372377L-82.60904152771361,-20.99636028916538L-79.89032090411888,-13.46731114884329zM-12.119481852709894,-3.741317695372377L36.47714904261706,-70.14928636248854L32.693112181886825,-77.18797257017256zM-12.119481852709894,-3.741317695372377L-79.89032090411888,-13.46731114884329L-74.9259867822425,-7.043140902484775zM-12.119481852709894,-3.741317695372377L37.99276066595805,-62.01735333686607L36.47714904261706,-70.14928636248854zM-12.119481852709894,-3.741317695372377L-74.9259867822425,-7.043140902484775L-67.85265472433619,-2.009674661571434zM-12.119481852709894,-3.741317695372377L37.118047564721024,-53.08952166891752L37.99276066595805,-62.01735333686607zM-149.33356138930088,-94.61267885989776L-78.36159351210667,-176.93720672444636L-93.39001693383801,-169.54856006175194zM-149.33356138930088,-94.61267885989776L-93.39001693383801,-169.54856006175194L-107.47824500820262,-160.70381852534317zM-149.33356138930088,-94.61267885989776L-62.865051042951826,-182.63527480064732L-78.36159351210667,-176.93720672444636zM-12.119481852709894,-3.741317695372377L-67.85265472433619,-2.009674661571434L-58.90422617588099,1.3914191894361208zM-149.33356138930088,-94.61267885989776L-107.47824500820262,-160.70381852534317L-120.17509117984982,-150.67449026477482z" style="fill:rgb(83,212,212)"/><path d="M-90.84537503710045,4.821752196645594L-146.3656947969111,-84.96518288773616L-97.13893914078844,-3.704830351081419z" style="fill:rgb(21,57,142)"/><path d="M-149.33356138930088,-94.61267885989776L-47.38888299829291,-186.44780475112054L-62.865051042951826,-182.63527480064732zM-12.119481852709894,-3.741317695372377L33.82846066372048,-43.71318407860887L37.118047564721024,-53.08952166891752zM-149.33356138930088,-94.61267885989776L-120.17509117984982,-150.67449026477482L-131.0556079534051,-139.76736886992563zM-12.119481852709894,-3.741317695372377L-58.90422617588099,1.3914191894361208L-48.40978622444013,2.97931054390214zM-149.33356138930088,-94.61267885989776L-32.433275047464754,-188.22340544018158L-47.38888299829291,-186.44780475112054zM-12.119481852709894,-3.741317695372377L28.207451894867113,-34.272512242853594L33.82846066372048,-43.71318407860887zM-149.33356138930088,-94.61267885989776L-131.0556079534051,-139.76736886992563L-139.72856102615162,-128.3230579833964zM-12.119481852709894,-3.741317695372377L-48.40978622444013,2.97931054390214L-36.784234563754474,2.6491260002283066z" style="fill:rgb(83,212,212)"/><path d="M54.858700366149094,-77.7362879135035L19.175986786913704,-154.8613965255411L57.06171320945184,-67.16941689968557z" style="fill:rgb(246,167,149)"/><path d="M-12.119481852709894,-3.741317695372377L20.450925674857704,-25.170493926895496L28.207451894867113,-34.272512242853594zM-149.33356138930088,-94.61267885989776L-18.503816023863436,-187.8599395619226L-32.433275047464754,-188.22340544018158zM-12.119481852709894,-3.741317695372377L-36.784234563754474,2.6491260002283066L-24.511319201251464,0.38350062580699606zM-12.119481852709894,-3.741317695372377L10.863777269564718,-16.80720018732468L20.450925674857704,-25.170493926895496z" style="fill:rgb(83,212,212)"/><path d="M-81.74232512285421,11.564862024693618L-140.20931931077405,-76.81171421964893L-90.84537503710045,4.821752196645594z" style="fill:rgb(34,46,160)"/><path d="M-12.119481852709894,-3.741317695372377L-0.15229588062375857,-9.556197022464309L10.863777269564718,-16.80720018732468zM-149.33356138930088,-94.61267885989776L-139.72856102615162,-128.3230579833964L-145.84663456093023,-116.7134727339991zM-149.33356138930088,-94.61267885989776L-6.102370421815313,-185.31211119670178L-18.503816023863436,-187.8599395619226z" style="fill:rgb(83,212,212)"/><path d="M57.06171320945184,-67.16941689968557L17.708023251752394,-143.31061157506522L56.125115816116704,-55.49660983435356z" style="fill:rgb(246,149,167)"/><path d="M-149.33356138930088,-94.61267885989776L-145.84663456093023,-116.7134727339991L-149.12008221586882,-105.33733098439367z" style="fill:rgb(83,212,212)"/><path d="M-70.11216283662829,16.18305112243538L-130.99024124180912,-70.5391976056338L-81.74232512285421,11.564862024693618z" style="fill:rgb(51,38,177)"/><path d="M-149.33356138930088,-94.61267885989776L4.285936750214044,-180.60036875498068L-6.102370421815313,-185.31211119670178z" style="fill:rgb(83,212,212)"/><path d="M-90.84537503710045,4.821752196645594L-140.20931931077405,-76.81171421964893L-146.3656947969111,-84.96518288773616z" style="fill:rgb(21,57,142)"/><path d="M54.858700366149094,-77.7362879135035L17.27725066059715,-165.15100837488154L19.175986786913704,-154.8613965255411z" style="fill:rgb(246,167,149)"/><path d="M56.125115816116704,-55.49660983435356L12.814081903903652,-130.94208130234944L51.98352920899186,-43.17165617640224z" style="fill:rgb(242,130,183)"/><path d="M-149.33356138930088,-94.61267885989776L12.21041283279275,-173.82024219966826L4.285936750214044,-180.60036875498068z" style="fill:rgb(83,212,212)"/><path d="M-56.37360268993689,18.41194863174197L-118.98085874662945,-66.479640541379L-70.11216283662829,16.18305112243538z" style="fill:rgb(71,33,192)"/><path d="M-149.33356138930088,-94.61267885989776L17.27725066059715,-165.15100837488154L12.21041283279275,-173.82024219966826z" style="fill:rgb(83,212,212)"/><path d="M51.98352920899186,-43.17165617640224L4.596389461463914,-118.26869118488102L44.719777092068256,-30.707684942944088z" style="fill:rgb(233,112,197)"/><path d="M-81.74232512285421,11.564862024693618L-130.99024124180912,-70.5391976056338L-140.20931931077405,-76.81171421964893z" style="fill:rgb(34,46,160)"/><path d="M57.06171320945184,-67.16941689968557L19.175986786913704,-154.8613965255411L17.708023251752394,-143.31061157506522z" style="fill:rgb(246,149,167)"/><path d="M-41.072407475727815,18.088808530877753L-104.60507342852635,-64.8833481805562L-56.37360268993689,18.41194863174197z" style="fill:rgb(92,32,204)"/><path d="M-149.33356138930088,-94.61267885989776L-146.3656947969111,-84.96518288773616L-140.20931931077405,-76.81171421964893z" style="fill:rgb(83,212,212)"/><path d="M44.719777092068256,-30.707684942944088L-6.668989882292276,-105.84864045788093L34.57586897249346,-18.652435849513978z" style="fill:rgb(220,94,208)"/><path d="M-149.33356138930088,-94.61267885989776L19.175986786913704,-154.8613965255411L17.27725066059715,-165.15100837488154z" style="fill:rgb(83,212,212)"/><path d="M-24.859370896277643,15.172418250352553L-88.43075198735849,-65.89351985784785L-41.072407475727815,18.088808530877753z" style="fill:rgb(115,34,214)"/><path d="M-70.11216283662829,16.18305112243538L-118.98085874662945,-66.479640541379L-130.99024124180912,-70.5391976056338z" style="fill:rgb(51,38,177)"/><path d="M34.57586897249346,-18.652435849513978L-20.533783777268926,-94.25310173459967L21.951723062842067,-7.556554118227302z" style="fill:rgb(203,77,216)"/><path d="M56.125115816116704,-55.49660983435356L17.708023251752394,-143.31061157506522L12.814081903903652,-130.94208130234944z" style="fill:rgb(242,130,183)"/><path d="M-8.456003986241104,9.754834177465014L-71.14784193901042,-69.5259715946049L-24.859370896277643,15.172418250352553z" style="fill:rgb(139,40,220)"/><path d="M-149.33356138930088,-94.61267885989776L-140.20931931077405,-76.81171421964893L-130.99024124180912,-70.5391976056338z" style="fill:rgb(83,212,212)"/><path d="M21.951723062842067,-7.556554118227302L-36.39553049766937,-84.02852862422371L7.389551075956184,2.06220311082811z" style="fill:rgb(183,62,221)"/><path d="M7.389551075956184,2.06220311082811L-53.53185886770604,-75.65788826464389L-8.456003986241104,9.754834177465014z" style="fill:rgb(162,50,222)"/><path d="M-149.33356138930088,-94.61267885989776L17.708023251752394,-143.31061157506522L19.175986786913704,-154.8613965255411zM-149.33356138930088,-94.61267885989776L-130.99024124180912,-70.5391976056338L-118.98085874662945,-66.479640541379z" style="fill:rgb(83,212,212)"/><path d="M-56.37360268993689,18.41194863174197L-104.60507342852635,-64.8833481805562L-118.98085874662945,-66.479640541379z" style="fill:rgb(71,33,192)"/><path d="M51.98352920899186,-43.17165617640224L12.814081903903652,-130.94208130234944L4.596389461463914,-118.26869118488102z" style="fill:rgb(233,112,197)"/><path d="M-149.33356138930088,-94.61267885989776L12.814081903903652,-130.94208130234944L17.708023251752394,-143.31061157506522zM-149.33356138930088,-94.61267885989776L-118.98085874662945,-66.479640541379L-104.60507342852635,-64.8833481805562z" style="fill:rgb(83,212,212)"/><path d="M-41.072407475727815,18.088808530877753L-88.43075198735849,-65.89351985784785L-104.60507342852635,-64.8833481805562z" style="fill:rgb(92,32,204)"/><path d="M-149.33356138930088,-94.61267885989776L4.596389461463914,-118.26869118488102L12.814081903903652,-130.94208130234944z" style="fill:rgb(83,212,212)"/><path d="M44.719777092068256,-30.707684942944088L4.596389461463914,-118.26869118488102L-6.668989882292276,-105.84864045788093z" style="fill:rgb(220,94,208)"/><path d="M-149.33356138930088,-94.61267885989776L-104.60507342852635,-64.8833481805562L-88.43075198735849,-65.89351985784785zM-149.33356138930088,-94.61267885989776L-6.668989882292276,-105.84864045788093L4.596389461463914,-118.26869118488102z" style="fill:rgb(83,212,212)"/><path d="M-24.859370896277643,15.172418250352553L-71.14784193901042,-69.5259715946049L-88.43075198735849,-65.89351985784785z" style="fill:rgb(115,34,214)"/><path d="M34.57586897249346,-18.652435849513978L-6.668989882292276,-105.84864045788093L-20.533783777268926,-94.25310173459967z" style="fill:rgb(203,77,216)"/><path d="M-149.33356138930088,-94.61267885989776L-88.43075198735849,-65.89351985784785L-71.14784193901042,-69.5259715946049zM-149.33356138930088,-94.61267885989776L-20.533783777268926,-94.25310173459967L-6.668989882292276,-105.84864045788093z" style="fill:rgb(83,212,212)"/><path d="M-8.456003986241104,9.754834177465014L-53.53185886770604,-75.65788826464389L-71.14784193901042,-69.5259715946049z" style="fill:rgb(139,40,220)"/><path d="M21.951723062842067,-7.556554118227302L-20.533783777268926,-94.25310173459967L-36.39553049766937,-84.02852862422371z" style="fill:rgb(183,62,221)"/><path d="M-149.33356138930088,-94.61267885989776L-71.14784193901042,-69.5259715946049L-53.53185886770604,-75.65788826464389z" style="fill:rgb(83,212,212)"/><path d="M7.389551075956184,2.06220311082811L-36.39553049766937,-84.02852862422371L-53.53185886770604,-75.65788826464389z" style="fill:rgb(162,50,222)"/><path d="M-149.33356138930088,-94.61267885989776L-36.39553049766937,-84.02852862422371L-20.533783777268926,-94.25310173459967zM-149.33356138930088,-94.61267885989776L-53.53185886770604,-75.65788826464389L-36.39553049766937,-84.02852862422371z" style="fill:rgb(83,212,212)"/></svg>
