<?xml version="1.0" encoding="UTF-8"?>
<!-- Generated by jsxcad -->
<!DOCTYPE svg PUBLIC "-//W3C//DTD SVG 1.1 Tiny//EN" "http://www.w3.org/Graphics/SVG/1.1/DTD/svg11-tiny.dtd">
<svg viewBox="-250 -250 500 500" width="500" height="500" xmlns="http://www.w3.org/2000/svg"><path d="M60.830451846638475,99.67099329142545L56.1271881564404,90.43547032867976L61.36049280247897,100.80655219091119z" style="fill:rgb(242,183,130)"/><path d="M46.84375186260283,109.1705379461743L40.64664890710127,97.9025838668329L46.046454295067136,108.18785307772362z" style="fill:rgb(21,57,142)"/><path d="M61.36049280247897,100.80655219091119L56.349853537067965,91.69550800583113L61.58685897630019,102.06498528854831z" style="fill:rgb(246,167,149)"/><path d="M47.89712309329761,109.95348881565386L41.44625629052445,98.88376130925911L46.84375186260283,109.1705379461743z" style="fill:rgb(34,46,160)"/><path d="M61.58685897630019,102.06498528854831L56.25597342897102,93.03184579685438L61.49974728704779,103.3980883147211z" style="fill:rgb(246,149,167)"/><path d="M40.1361209826002,96.75853698906275L46.258476614952556,87.48356064247086L44.74415603197762,88.21432848305261zM40.1361209826002,96.75853698906275L44.74415603197762,88.21432848305261L43.35875648089513,89.15092694074755zM40.1361209826002,96.75853698906275L47.844593819573866,86.98623082663565L46.258476614952556,87.48356064247086z" style="fill:rgb(83,212,212)"/><path d="M49.16661860806966,110.50569019599273L42.505105275397916,99.66361876411068L47.89712309329761,109.95348881565386z" style="fill:rgb(51,38,177)"/><path d="M40.1361209826002,96.75853698906275L43.35875648089513,89.15092694074755L42.15465920726302,90.25811384532409zM40.1361209826002,96.75853698906275L49.44266635650201,86.74130672598803L47.844593819573866,86.98623082663565zM40.1361209826002,96.75853698906275L42.15465920726302,90.25811384532409L41.17760098435766,91.49425982146535z" style="fill:rgb(83,212,212)"/><path d="M60.830451846638475,99.67099329142545L55.59765403347106,89.29999784813252L56.1271881564404,90.43547032867976z" style="fill:rgb(242,183,130)"/><path d="M40.1361209826002,96.75853698906275L50.99227337470034,86.75842618089867L49.44266635650201,86.74130672598803z" style="fill:rgb(83,212,212)"/><path d="M61.49974728704779,103.3980883147211L55.84813942183422,94.39289016677353L61.101514899734575,104.75439124830226z" style="fill:rgb(242,130,183)"/><path d="M40.1361209826002,96.75853698906275L41.17760098435766,91.49425982146535L40.46501623695237,92.81278878791984z" style="fill:rgb(83,212,212)"/><path d="M50.60357051398773,110.80499560421578L43.7830475746295,100.2112645950821L49.16661860806966,110.50569019599273z" style="fill:rgb(71,33,192)"/><path d="M40.1361209826002,96.75853698906275L52.43457138013332,87.03749242468926L50.99227337470034,86.75842618089867zM40.1361209826002,96.75853698906275L40.46501623695237,92.81278878791984L40.044598889832656,94.16384870584486z" style="fill:rgb(83,212,212)"/><path d="M61.101514899734575,104.75439124830226L55.14130759687748,95.72578348839461L60.40674328913572,106.0812206292195z" style="fill:rgb(233,112,197)"/><path d="M46.84375186260283,109.1705379461743L41.44625629052445,98.88376130925911L40.64664890710127,97.9025838668329z" style="fill:rgb(21,57,142)"/><path d="M40.1361209826002,96.75853698906275L53.71447193672317,87.56858269314873L52.43457138013332,87.03749242468926z" style="fill:rgb(83,212,212)"/><path d="M52.152440518396396,110.83907899812395L45.23110074912302,100.50468830201712L50.60357051398773,110.80499560421578z" style="fill:rgb(92,32,204)"/><path d="M61.36049280247897,100.80655219091119L56.1271881564404,90.43547032867976L56.349853537067965,91.69550800583113z" style="fill:rgb(246,167,149)"/><path d="M40.1361209826002,96.75853698906275L40.044598889832656,94.16384870584486L39.93321061826134,95.49608140820355z" style="fill:rgb(83,212,212)"/><path d="M60.40674328913572,106.0812206292195L54.162291716134554,96.97847867389764L59.44179666008844,107.32677347854835z" style="fill:rgb(220,94,208)"/><path d="M53.753002018531205,110.60605204959118L46.79329101987615,100.53180001573025L52.152440518396396,110.83907899812395z" style="fill:rgb(115,34,214)"/><path d="M40.1361209826002,96.75853698906275L54.7826911146535,88.3322255651186L53.71447193672317,87.56858269314873z" style="fill:rgb(83,212,212)"/><path d="M59.44179666008844,107.32677347854835L52.94882415703146,98.10188010078161L58.2438664921913,108.44224095138345z" style="fill:rgb(203,77,216)"/><path d="M55.342754959863534,110.11464044055857L48.408868640606904,100.2909749503564L53.753002018531205,110.60605204959118z" style="fill:rgb(139,40,220)"/><path d="M47.89712309329761,109.95348881565386L42.505105275397916,99.66361876411068L41.44625629052445,98.88376130925911z" style="fill:rgb(34,46,160)"/><path d="M61.58685897630019,102.06498528854831L56.349853537067965,91.69550800583113L56.25597342897102,93.03184579685438z" style="fill:rgb(246,149,167)"/><path d="M58.2438664921913,108.44224095138345L51.54807226588728,99.05189148710227L56.859498791305114,109.38384621769818z" style="fill:rgb(183,62,221)"/><path d="M56.859498791305114,109.38384621769818L50.01474444097263,99.79122685875895L55.342754959863534,110.11464044055857z" style="fill:rgb(162,50,222)"/><path d="M40.1361209826002,96.75853698906275L55.59765403347106,89.29999784813252L54.7826911146535,88.3322255651186z" style="fill:rgb(83,212,212)"/><path d="M49.16661860806966,110.50569019599273L43.7830475746295,100.2112645950821L42.505105275397916,99.66361876411068z" style="fill:rgb(51,38,177)"/><path d="M61.49974728704779,103.3980883147211L56.25597342897102,93.03184579685438L55.84813942183422,94.39289016677353z" style="fill:rgb(242,130,183)"/><path d="M40.1361209826002,96.75853698906275L56.1271881564404,90.43547032867976L55.59765403347106,89.29999784813252zM40.1361209826002,96.75853698906275L40.64664890710127,97.9025838668329L41.44625629052445,98.88376130925911zM40.1361209826002,96.75853698906275L56.349853537067965,91.69550800583113L56.1271881564404,90.43547032867976z" style="fill:rgb(83,212,212)"/><path d="M50.60357051398773,110.80499560421578L45.23110074912302,100.50468830201712L43.7830475746295,100.2112645950821z" style="fill:rgb(71,33,192)"/><path d="M61.101514899734575,104.75439124830226L55.84813942183422,94.39289016677353L55.14130759687748,95.72578348839461z" style="fill:rgb(233,112,197)"/><path d="M40.1361209826002,96.75853698906275L41.44625629052445,98.88376130925911L42.505105275397916,99.66361876411068zM40.1361209826002,96.75853698906275L56.25597342897102,93.03184579685438L56.349853537067965,91.69550800583113z" style="fill:rgb(83,212,212)"/><path d="M52.152440518396396,110.83907899812395L46.79329101987615,100.53180001573025L45.23110074912302,100.50468830201712z" style="fill:rgb(92,32,204)"/><path d="M60.40674328913572,106.0812206292195L55.14130759687748,95.72578348839461L54.162291716134554,96.97847867389764z" style="fill:rgb(220,94,208)"/><path d="M40.1361209826002,96.75853698906275L42.505105275397916,99.66361876411068L43.7830475746295,100.2112645950821z" style="fill:rgb(83,212,212)"/><path d="M53.753002018531205,110.60605204959118L48.408868640606904,100.2909749503564L46.79329101987615,100.53180001573025z" style="fill:rgb(115,34,214)"/><path d="M59.44179666008844,107.32677347854835L54.162291716134554,96.97847867389764L52.94882415703146,98.10188010078161z" style="fill:rgb(203,77,216)"/><path d="M40.1361209826002,96.75853698906275L55.84813942183422,94.39289016677353L56.25597342897102,93.03184579685438z" style="fill:rgb(83,212,212)"/><path d="M55.342754959863534,110.11464044055857L50.01474444097263,99.79122685875895L48.408868640606904,100.2909749503564z" style="fill:rgb(139,40,220)"/><path d="M58.2438664921913,108.44224095138345L52.94882415703146,98.10188010078161L51.54807226588728,99.05189148710227z" style="fill:rgb(183,62,221)"/><path d="M56.859498791305114,109.38384621769818L51.54807226588728,99.05189148710227L50.01474444097263,99.79122685875895z" style="fill:rgb(162,50,222)"/><path d="M40.1361209826002,96.75853698906275L43.7830475746295,100.2112645950821L45.23110074912302,100.50468830201712zM40.1361209826002,96.75853698906275L55.14130759687748,95.72578348839461L55.84813942183422,94.39289016677353zM40.1361209826002,96.75853698906275L45.23110074912302,100.50468830201712L46.79329101987615,100.53180001573025zM40.1361209826002,96.75853698906275L54.162291716134554,96.97847867389764L55.14130759687748,95.72578348839461zM40.1361209826002,96.75853698906275L46.79329101987615,100.53180001573025L48.408868640606904,100.2909749503564zM40.1361209826002,96.75853698906275L52.94882415703146,98.10188010078161L54.162291716134554,96.97847867389764zM40.1361209826002,96.75853698906275L48.408868640606904,100.2909749503564L50.01474444097263,99.79122685875895zM40.1361209826002,96.75853698906275L51.54807226588728,99.05189148710227L52.94882415703146,98.10188010078161zM40.1361209826002,96.75853698906275L50.01474444097263,99.79122685875895L51.54807226588728,99.05189148710227z" style="fill:rgb(83,212,212)"/><path d="M1.60406379161954,130.4061683193982L-80.55619277302709,-7.583383854831665L-3.595569183386149,123.35888965827519z" style="fill:rgb(21,57,142)"/><path d="M103.60908059847351,71.66052267865258L43.369303104770864,-58.549517540488196L105.55666268920488,80.3037807901451z" style="fill:rgb(246,167,149)"/><path d="M8.711202370123988,136.12764035709637L-75.34425739634665,-0.7742537021130037L1.60406379161954,130.4061683193982z" style="fill:rgb(34,46,160)"/><path d="M105.55666268920488,80.3037807901451L42.497291337855984,-49.12836342600549L105.28020021565052,89.60860051972104z" style="fill:rgb(246,149,167)"/><path d="M17.482620442377193,140.25923368409408L-67.90955666644747,4.576530161817008L8.711202370123988,136.12764035709637z" style="fill:rgb(51,38,177)"/><path d="M105.28020021565052,89.60860051972104L39.07915234758401,-39.23074036910887L102.73931332614275,99.20938714985161z" style="fill:rgb(242,130,183)"/><path d="M27.590763367177757,142.59487245382857L-58.49572969970451,8.209942079950903L17.482620442377193,140.25923368409408z" style="fill:rgb(71,33,192)"/><path d="M102.73931332614275,99.20938714985161L33.19837005129181,-29.26343500714239L97.99290533932577,108.71141339649141z" style="fill:rgb(233,112,197)"/><path d="M38.634058167811055,143.00209508925545L-47.44798146614253,9.930655490498928L27.590763367177757,142.59487245382857z" style="fill:rgb(92,32,204)"/><path d="M97.99290533932577,108.71141339649141L25.058304463213215,-19.654113275642075L91.20363329598366,117.709562127845z" style="fill:rgb(220,94,208)"/><path d="M50.15382207821219,141.43432944674018L-35.20359692409884,9.623645896321618L38.634058167811055,143.00209508925545z" style="fill:rgb(115,34,214)"/><path d="M91.20363329598366,117.709562127845L14.979035136859116,-10.827978745386424L82.63551888089393,125.8101694660322z" style="fill:rgb(203,77,216)"/><path d="M61.65709619756842,137.93813156129912L-22.274045014920343,7.267047094760404L50.15382207821219,141.43432944674018z" style="fill:rgb(139,40,220)"/><path d="M82.63551888089393,125.8101694660322L3.384578047015952,-3.1822240731240066L72.6437688146775,132.65400556441688z" style="fill:rgb(183,62,221)"/><path d="M72.6437688146775,132.65400556441688L-9.21917737086692,2.9391199377418618L61.65709619756842,137.93813156129912z" style="fill:rgb(162,50,222)"/><path d="M-83.40504937775557,-15.546273529790026L-32.160466893350076,-81.2062628489498L-43.58561012479961,-75.62693942631623z" style="fill:rgb(83,212,212)"/><path d="M1.60406379161954,130.4061683193982L-75.34425739634665,-0.7742537021130037L-80.55619277302709,-7.583383854831665z" style="fill:rgb(21,57,142)"/><path d="M-83.40504937775557,-15.546273529790026L-43.58561012479961,-75.62693942631623L-54.20403409362526,-68.77671241996651z" style="fill:rgb(83,212,212)"/><path d="M103.60908059847351,71.66052267865258L41.72619998619171,-67.12747823869294L43.369303104770864,-58.549517540488196z" style="fill:rgb(246,167,149)"/><path d="M-83.40504937775557,-15.546273529790026L-20.30675412595463,-85.32842845485175L-32.160466893350076,-81.2062628489498zM-83.40504937775557,-15.546273529790026L-54.20403409362526,-68.77671241996651L-63.65879749133538,-60.87802886759858zM-83.40504937775557,-15.546273529790026L-8.417523823304695,-87.84675139553782L-20.30675412595463,-85.32842845485175zM-83.40504937775557,-15.546273529790026L-63.65879749133538,-60.87802886759858L-71.6208528349138,-52.18647724436385zM-83.40504937775557,-15.546273529790026L3.1058521829358896,-88.65792567755723L-8.417523823304695,-87.84675139553782zM-83.40504937775557,-15.546273529790026L-71.6208528349138,-52.18647724436385L-77.79671236360247,-42.987427115619646z" style="fill:rgb(83,212,212)"/><path d="M8.711202370123988,136.12764035709637L-67.90955666644747,4.576530161817008L-75.34425739634665,-0.7742537021130037z" style="fill:rgb(34,46,160)"/><path d="M105.55666268920488,80.3037807901451L43.369303104770864,-58.549517540488196L42.497291337855984,-49.12836342600549z" style="fill:rgb(246,149,167)"/><path d="M-83.40504937775557,-15.546273529790026L13.86132156570566,-87.70660768218671L3.1058521829358896,-88.65792567755723zM-83.40504937775557,-15.546273529790026L-77.79671236360247,-42.987427115619646L-81.9374844579468,-33.5918377911959zM-83.40504937775557,-15.546273529790026L23.45548739360015,-84.99044398171226L13.86132156570566,-87.70660768218671z" style="fill:rgb(83,212,212)"/><path d="M17.482620442377193,140.25923368409408L-58.49572969970451,8.209942079950903L-67.90955666644747,4.576530161817008z" style="fill:rgb(51,38,177)"/><path d="M105.28020021565052,89.60860051972104L42.497291337855984,-49.12836342600549L39.07915234758401,-39.23074036910887z" style="fill:rgb(242,130,183)"/><path d="M-83.40504937775557,-15.546273529790026L-81.9374844579468,-33.5918377911959L-83.84932983502027,-24.330516362117162zM-83.40504937775557,-15.546273529790026L31.515185402097863,-80.56522715773454L23.45548739360015,-84.99044398171226z" style="fill:rgb(83,212,212)"/><path d="M27.590763367177757,142.59487245382857L-47.44798146614253,9.930655490498928L-58.49572969970451,8.209942079950903z" style="fill:rgb(71,33,192)"/><path d="M102.73931332614275,99.20938714985161L39.07915234758401,-39.23074036910887L33.19837005129181,-29.26343500714239z" style="fill:rgb(233,112,197)"/><path d="M-83.40504937775557,-15.546273529790026L37.70152403646761,-74.54948136840022L31.515185402097863,-80.56522715773454z" style="fill:rgb(83,212,212)"/><path d="M38.634058167811055,143.00209508925545L-35.20359692409884,9.623645896321618L-47.44798146614253,9.930655490498928z" style="fill:rgb(92,32,204)"/><path d="M97.99290533932577,108.71141339649141L33.19837005129181,-29.26343500714239L25.058304463213215,-19.654113275642075z" style="fill:rgb(220,94,208)"/><path d="M-83.40504937775557,-15.546273529790026L41.72619998619171,-67.12747823869294L37.70152403646761,-74.54948136840022z" style="fill:rgb(83,212,212)"/><path d="M50.15382207821219,141.43432944674018L-22.274045014920343,7.267047094760404L-35.20359692409884,9.623645896321618z" style="fill:rgb(115,34,214)"/><path d="M91.20363329598366,117.709562127845L25.058304463213215,-19.654113275642075L14.979035136859116,-10.827978745386424z" style="fill:rgb(203,77,216)"/><path d="M-83.40504937775557,-15.546273529790026L-80.55619277302709,-7.583383854831665L-75.34425739634665,-0.7742537021130037z" style="fill:rgb(83,212,212)"/><path d="M61.65709619756842,137.93813156129912L-9.21917737086692,2.9391199377418618L-22.274045014920343,7.267047094760404z" style="fill:rgb(139,40,220)"/><path d="M82.63551888089393,125.8101694660322L14.979035136859116,-10.827978745386424L3.384578047015952,-3.1822240731240066z" style="fill:rgb(183,62,221)"/><path d="M-83.40504937775557,-15.546273529790026L43.369303104770864,-58.549517540488196L41.72619998619171,-67.12747823869294z" style="fill:rgb(83,212,212)"/><path d="M72.6437688146775,132.65400556441688L3.384578047015952,-3.1822240731240066L-9.21917737086692,2.9391199377418618z" style="fill:rgb(162,50,222)"/><path d="M-83.40504937775557,-15.546273529790026L-75.34425739634665,-0.7742537021130037L-67.90955666644747,4.576530161817008zM-83.40504937775557,-15.546273529790026L42.497291337855984,-49.12836342600549L43.369303104770864,-58.549517540488196zM-83.40504937775557,-15.546273529790026L-67.90955666644747,4.576530161817008L-58.49572969970451,8.209942079950903zM-83.40504937775557,-15.546273529790026L39.07915234758401,-39.23074036910887L42.497291337855984,-49.12836342600549zM-83.40504937775557,-15.546273529790026L-58.49572969970451,8.209942079950903L-47.44798146614253,9.930655490498928zM-83.40504937775557,-15.546273529790026L33.19837005129181,-29.26343500714239L39.07915234758401,-39.23074036910887zM-83.40504937775557,-15.546273529790026L-47.44798146614253,9.930655490498928L-35.20359692409884,9.623645896321618zM-83.40504937775557,-15.546273529790026L25.058304463213215,-19.654113275642075L33.19837005129181,-29.26343500714239zM-83.40504937775557,-15.546273529790026L-35.20359692409884,9.623645896321618L-22.274045014920343,7.267047094760404zM-83.40504937775557,-15.546273529790026L14.979035136859116,-10.827978745386424L25.058304463213215,-19.654113275642075zM-83.40504937775557,-15.546273529790026L-22.274045014920343,7.267047094760404L-9.21917737086692,2.9391199377418618zM-83.40504937775557,-15.546273529790026L3.384578047015952,-3.1822240731240066L14.979035136859116,-10.827978745386424zM-83.40504937775557,-15.546273529790026L-9.21917737086692,2.9391199377418618L3.384578047015952,-3.1822240731240066zM-153.80540971745629,-92.7194259986082L-78.95552430212668,-179.35982598150574L-94.75208237906543,-171.59233085926988zM-153.80540971745629,-92.7194259986082L-94.75208237906543,-171.59233085926988L-109.56488001444735,-162.2986147328314zM-153.80540971745629,-92.7194259986082L-62.66572613243766,-185.3572512297311L-78.95552430212668,-179.35982598150574zM-153.80540971745629,-92.7194259986082L-109.56488001444735,-162.2986147328314L-122.92441291941333,-151.76024626268054z" style="fill:rgb(83,212,212)"/><path d="M-92.08287498856848,11.724318471302501L-150.73527430395998,-82.51677727094354L-98.68036125352971,2.679832702225918z" style="fill:rgb(21,57,142)"/><path d="M-153.80540971745629,-92.7194259986082L-46.39036693479716,-189.38080411179817L-62.66572613243766,-185.3572512297311zM-153.80540971745629,-92.7194259986082L-122.92441291941333,-151.76024626268054L-134.38716188855747,-140.2953583522921zM-153.80540971745629,-92.7194259986082L-30.650189582850807,-191.27066967231139L-46.39036693479716,-189.38080411179817zM-153.80540971745629,-92.7194259986082L-134.38716188855747,-140.2953583522921L-143.5427509552806,-128.25757912573164z" style="fill:rgb(83,212,212)"/><path d="M61.05474266407615,-75.09502912192475L23.978466376400476,-156.2746196656173L63.448275432481786,-63.95032125689558z" style="fill:rgb(246,167,149)"/><path d="M-153.80540971745629,-92.7194259986082L-15.973202643143523,-190.9170296905738L-30.650189582850807,-191.27066967231139z" style="fill:rgb(83,212,212)"/><path d="M-82.52155613134956,18.900968187513726L-144.29571831863998,-73.87652075323543L-92.08287498856848,11.724318471302501z" style="fill:rgb(34,46,160)"/><path d="M-153.80540971745629,-92.7194259986082L-143.5427509552806,-128.25757912573164L-150.0243763260739,-116.03409198907106zM-153.80540971745629,-92.7194259986082L-2.8858253271063234,-188.26814852181332L-15.973202643143523,-190.9170296905738z" style="fill:rgb(83,212,212)"/><path d="M63.448275432481786,-63.95032125689558L22.488543168192574,-144.08802309641035L62.53775050932542,-51.63055033375051z" style="fill:rgb(246,149,167)"/><path d="M-153.80540971745629,-92.7194259986082L-150.0243763260739,-116.03409198907106L-153.52300302064785,-104.04169082720836zM-153.80540971745629,-92.7194259986082L8.100267688779768,-183.34013421304843L-2.8858253271063234,-188.26814852181332z" style="fill:rgb(83,212,212)"/><path d="M-70.28882040938448,23.84287030931917L-134.61040788952513,-67.21223192608238L-82.52155613134956,18.900968187513726z" style="fill:rgb(51,38,177)"/><path d="M-92.08287498856848,11.724318471302501L-144.29571831863998,-73.87652075323543L-150.73527430395998,-82.51677727094354z" style="fill:rgb(21,57,142)"/><path d="M61.05474266407615,-75.09502912192475L21.91130786859339,-167.1129301453621L23.978466376400476,-156.2746196656173z" style="fill:rgb(246,167,149)"/><path d="M62.53775050932542,-51.63055033375051L17.3693054695293,-131.02029109445087L58.24556614310161,-38.614684675406224z" style="fill:rgb(242,130,183)"/><path d="M-153.80540971745629,-92.7194259986082L16.506520322923024,-176.22749086099628L8.100267688779768,-183.34013421304843z" style="fill:rgb(83,212,212)"/><path d="M-55.82305646096574,26.263478697710084L-121.95953570770135,-62.88128719037989L-70.28882040938448,23.84287030931917z" style="fill:rgb(71,33,192)"/><path d="M-153.80540971745629,-92.7194259986082L21.91130786859339,-167.1129301453621L16.506520322923024,-176.22749086099628z" style="fill:rgb(83,212,212)"/><path d="M58.24556614310161,-38.614684675406224L8.72093171134278,-117.61501583205533L50.651447233240006,-25.446601572347905z" style="fill:rgb(233,112,197)"/><path d="M-82.52155613134956,18.900968187513726L-134.61040788952513,-67.21223192608238L-144.29571831863998,-73.87652075323543z" style="fill:rgb(34,46,160)"/><path d="M63.448275432481786,-63.95032125689558L23.978466376400476,-156.2746196656173L22.488543168192574,-144.08802309641035z" style="fill:rgb(246,149,167)"/><path d="M-39.6995357342823,25.98367797534199L-106.786381983239,-61.155531066810525L-55.82305646096574,26.263478697710084z" style="fill:rgb(92,32,204)"/><path d="M-153.80540971745629,-92.7194259986082L-150.73527430395998,-82.51677727094354L-144.29571831863998,-73.87652075323543z" style="fill:rgb(83,212,212)"/><path d="M50.651447233240006,-25.446601572347905L-3.16938879730014,-104.46657811145748L40.00531994413461,-12.708726660220751z" style="fill:rgb(220,94,208)"/><path d="M-153.80540971745629,-92.7194259986082L23.978466376400476,-156.2746196656173L21.91130786859339,-167.1129301453621z" style="fill:rgb(83,212,212)"/><path d="M-22.60733143421872,22.954007605915596L-89.69052257396163,-62.1931221000905L-39.6995357342823,25.98367797534199z" style="fill:rgb(115,34,214)"/><path d="M-70.28882040938448,23.84287030931917L-121.95953570770135,-62.88128719037989L-134.61040788952513,-67.21223192608238z" style="fill:rgb(51,38,177)"/><path d="M40.00531994413461,-12.708726660220751L-17.828135684726558,-92.18520410817563L26.726866003117763,-0.9878272094746784z" style="fill:rgb(203,77,216)"/><path d="M62.53775050932542,-51.63055033375051L22.488543168192574,-144.08802309641035L17.3693054695293,-131.02029109445087z" style="fill:rgb(242,130,183)"/><path d="M-153.80540971745629,-92.7194259986082L-144.29571831863998,-73.87652075323543L-134.61040788952513,-67.21223192608238z" style="fill:rgb(83,212,212)"/><path d="M-5.3125536203473676,17.268059569828736L-71.4048906207006,-66.01573821449607L-22.60733143421872,22.954007605915596z" style="fill:rgb(139,40,220)"/><path d="M26.726866003117763,-0.9878272094746784L-34.61433148438978,-81.35584376022449L11.389313993542633,9.163923323042134z" style="fill:rgb(183,62,221)"/><path d="M11.389313993542633,9.163923323042134L-52.75659688022854,-72.49562053104478L-5.3125536203473676,17.268059569828736z" style="fill:rgb(162,50,222)"/><path d="M-153.80540971745629,-92.7194259986082L22.488543168192574,-144.08802309641035L23.978466376400476,-156.2746196656173zM-153.80540971745629,-92.7194259986082L-134.61040788952513,-67.21223192608238L-121.95953570770135,-62.88128719037989z" style="fill:rgb(83,212,212)"/><path d="M-55.82305646096574,26.263478697710084L-106.786381983239,-61.155531066810525L-121.95953570770135,-62.88128719037989z" style="fill:rgb(71,33,192)"/><path d="M58.24556614310161,-38.614684675406224L17.3693054695293,-131.02029109445087L8.72093171134278,-117.61501583205533z" style="fill:rgb(233,112,197)"/><path d="M-153.80540971745629,-92.7194259986082L17.3693054695293,-131.02029109445087L22.488543168192574,-144.08802309641035zM-153.80540971745629,-92.7194259986082L-121.95953570770135,-62.88128719037989L-106.786381983239,-61.155531066810525z" style="fill:rgb(83,212,212)"/><path d="M-39.6995357342823,25.98367797534199L-89.69052257396163,-62.1931221000905L-106.786381983239,-61.155531066810525z" style="fill:rgb(92,32,204)"/><path d="M-153.80540971745629,-92.7194259986082L8.72093171134278,-117.61501583205533L17.3693054695293,-131.02029109445087z" style="fill:rgb(83,212,212)"/><path d="M50.651447233240006,-25.446601572347905L8.72093171134278,-117.61501583205533L-3.16938879730014,-104.46657811145748z" style="fill:rgb(220,94,208)"/><path d="M-153.80540971745629,-92.7194259986082L-106.786381983239,-61.155531066810525L-89.69052257396163,-62.1931221000905zM-153.80540971745629,-92.7194259986082L-3.16938879730014,-104.46657811145748L8.72093171134278,-117.61501583205533z" style="fill:rgb(83,212,212)"/><path d="M-22.60733143421872,22.954007605915596L-71.4048906207006,-66.01573821449607L-89.69052257396163,-62.1931221000905z" style="fill:rgb(115,34,214)"/><path d="M40.00531994413461,-12.708726660220751L-3.16938879730014,-104.46657811145748L-17.828135684726558,-92.18520410817563z" style="fill:rgb(203,77,216)"/><path d="M-153.80540971745629,-92.7194259986082L-89.69052257396163,-62.1931221000905L-71.4048906207006,-66.01573821449607zM-153.80540971745629,-92.7194259986082L-17.828135684726558,-92.18520410817563L-3.16938879730014,-104.46657811145748z" style="fill:rgb(83,212,212)"/><path d="M-5.3125536203473676,17.268059569828736L-52.75659688022854,-72.49562053104478L-71.4048906207006,-66.01573821449607z" style="fill:rgb(139,40,220)"/><path d="M26.726866003117763,-0.9878272094746784L-17.828135684726558,-92.18520410817563L-34.61433148438978,-81.35584376022449z" style="fill:rgb(183,62,221)"/><path d="M-153.80540971745629,-92.7194259986082L-71.4048906207006,-66.01573821449607L-52.75659688022854,-72.49562053104478z" style="fill:rgb(83,212,212)"/><path d="M11.389313993542633,9.163923323042134L-34.61433148438978,-81.35584376022449L-52.75659688022854,-72.49562053104478z" style="fill:rgb(162,50,222)"/><path d="M-153.80540971745629,-92.7194259986082L-34.61433148438978,-81.35584376022449L-17.828135684726558,-92.18520410817563zM-153.80540971745629,-92.7194259986082L-52.75659688022854,-72.49562053104478L-34.61433148438978,-81.35584376022449z" style="fill:rgb(83,212,212)"/></svg>
