<?xml version="1.0" encoding="UTF-8"?>
<!-- Generated by jsxcad -->
<!DOCTYPE svg PUBLIC "-//W3C//DTD SVG 1.1 Tiny//EN" "http://www.w3.org/Graphics/SVG/1.1/DTD/svg11-tiny.dtd">
<svg baseProfile="tiny" height="90.00000000000006mm" width="90.00000000000006mm" viewBox="0 0 90.00000000000006 90.00000000000006" version="1.1" stroke="black" stroke-width=".1" fill="none" xmlns="http://www.w3.org/2000/svg">
<path fill="#c0c0c0" stroke="#c0c0c0" d="M25 16.97065 L25 17 L25.05807 17 L25.23302 17 L29.12366 17 L64.25351 17 L64.68862 17 L64.85113 17 L65 17 L65 16.97065 L65 16.89958 L65.27859 17.08891 L66.99113 18.41729 L68.61688 19.85058 L70.14942 21.38312 L71.58271 23.00887 L72.91109 24.72141 L74.12931 26.51398 L75.23258 28.3795 L76.21653 30.31061 L77.07729 32.2997 L77.81145 34.33891 L78.41612 36.4202 L78.88891 38.53534 L79.22796 40.676 L79.43192 42.83373 L79.5 45 L79.43192 47.16627 L79.22796 49.324 L78.88891 51.46466 L78.41612 53.5798 L77.81145 55.66109 L77.07729 57.7003 L76.21653 59.68939 L75.23258 61.6205 L74.12931 63.48602 L72.91109 65.27859 L71.58271 66.99113 L70.14942 68.61688 L68.61688 70.14942 L66.99113 71.58271 L65.27859 72.91109 L63.48602 74.12931 L61.6205 75.23258 L59.68939 76.21653 L57.7003 77.07729 L55.66109 77.81145 L53.5798 78.41612 L51.46466 78.88891 L49.324 79.22796 L47.16627 79.43192 L45 79.5 L42.83373 79.43192 L40.676 79.22796 L38.53534 78.88891 L36.4202 78.41612 L34.33891 77.81145 L32.2997 77.07729 L30.31061 76.21653 L28.3795 75.23258 L26.51398 74.12931 L24.72141 72.91109 L23.00887 71.58271 L21.38312 70.14942 L19.85058 68.61688 L18.41729 66.99113 L17.08891 65.27859 L15.87069 63.48602 L14.76742 61.6205 L13.78347 59.68939 L12.92271 57.7003 L12.18855 55.66109 L11.58388 53.5798 L11.11109 51.46466 L10.77204 49.324 L10.56808 47.16627 L10.5 45 L10.56808 42.83373 L10.77204 40.676 L11.11109 38.53534 L11.58388 36.4202 L12.18855 34.33891 L12.92271 32.2997 L13.78347 30.31061 L14.76742 28.3795 L15.87069 26.51398 L17.08891 24.72141 L18.41729 23.00887 L19.85058 21.38312 L21.38312 19.85058 L23.00887 18.41729 L24.72141 17.08891 L25 16.89958 z"/>
<path fill="#c0c0c0" stroke="#c0c0c0" d="M42.833729930219064 79.43192222046532 L42.833729930219064 79.43192222046532 L44.99999999999999 79.50000000000001 L44.99999999999999 79.50000000000001 z"/>
<path fill="#c0c0c0" stroke="#c0c0c0" d="M47.16627006978093 79.43192222046534 L47.16627006978093 79.43192222046534 L45 79.50000000000003 L45 79.50000000000003 z"/>
<path fill="#c0c0c0" stroke="#c0c0c0" d="M49.32399970674653 79.22795689770236 L49.32399970674653 79.22795689770236 L47.16627022552767 79.43192238583357 L47.16627022552767 79.43192238583357 z"/>
<path fill="#c0c0c0" stroke="#c0c0c0" d="M51.46465990948277 78.88890942849667 L51.46465990948277 78.88890942849667 L49.32399948242516 79.22795673216108 L49.32399948242516 79.22795673216108 z"/>
<path fill="#c0c0c0" stroke="#c0c0c0" d="M55.661089662149934 77.81144883711245 L55.661089662149934 77.81144883711245 L53.57979983405591 78.41611942881671 L53.57979983405591 78.41611942881671 z"/>
<path fill="#c0c0c0" stroke="#c0c0c0" d="M53.57979985234474 78.41611933942839 L53.57979985234474 78.41611933942839 L51.46465981083874 78.88890915374115 L51.46465981083874 78.88890915374115 z"/>
<path fill="#c0c0c0" stroke="#c0c0c0" d="M57.70029926932835 77.07728797048142 L57.70029926932835 77.07728797048142 L55.661089516271 77.811448656391 L55.661089516271 77.811448656391 z"/>
<path fill="#c0c0c0" stroke="#c0c0c0" d="M59.68939050600746 76.21653116931425 L59.68939050600746 76.21653116931425 L57.70029908667198 77.07728788942349 L57.70029908667198 77.07728788942349 z"/>
<path fill="#c0c0c0" stroke="#c0c0c0" d="M61.620500657365824 75.2325811115449 L61.620500657365824 75.2325811115449 L63.48602264986694 74.12931448068029 L63.48602264986694 74.12931448068029 z"/>
<path fill="#c0c0c0" stroke="#c0c0c0" d="M65.2785886630905 72.91108803279742 L65.2785886630905 72.91108803279742 L63.486022993068126 74.12931440416601 L63.486022993068126 74.12931440416601 z"/>
<path fill="#c0c0c0" stroke="#c0c0c0" d="M61.620500548715555 75.23258107691491 L61.620500548715555 75.23258107691491 L59.689390423630684 76.21653083142202 L59.689390423630684 76.21653083142202 z"/>
<path fill="#c0c0c0" stroke="#c0c0c0" d="M66.99112742086159 71.58270707454173 L66.99112742086159 71.58270707454173 L68.61687671321869 70.14941627187842 L68.61687671321869 70.14941627187842 z"/>
<path fill="#c0c0c0" stroke="#c0c0c0" d="M70.14941640028925 68.61687640028924 L70.14941640028925 68.61687640028924 L68.61687640028924 70.14941640028925 L68.61687640028924 70.14941640028925 z"/>
<path fill="#c0c0c0" stroke="#c0c0c0" d="M66.99112760279107 71.58270690953687 L66.99112760279107 71.58270690953687 L65.27858866331839 72.91108827676045 L65.27858866331839 72.91108827676045 z"/>
<path fill="#c0c0c0" stroke="#c0c0c0" d="M71.58270707454173 66.99112742086159 L71.58270707454173 66.99112742086159 L70.14941627187841 68.61687671321869 L70.14941627187841 68.61687671321869 z"/>
<path fill="#c0c0c0" stroke="#c0c0c0" d="M72.91108827676047 65.27858866331839 L72.91108827676047 65.27858866331839 L71.58270690953687 66.99112760279107 L71.58270690953687 66.99112760279107 z"/>
<path fill="#c0c0c0" stroke="#c0c0c0" d="M74.12931440416601 63.486022993068126 L74.12931440416601 63.486022993068126 L72.91108803279742 65.2785886630905 L72.91108803279742 65.2785886630905 z"/>
<path fill="#c0c0c0" stroke="#c0c0c0" d="M75.2325811115449 61.620500657365824 L75.2325811115449 61.620500657365824 L74.12931448068028 63.48602264986693 L74.12931448068028 63.48602264986693 z"/>
<path fill="#c0c0c0" stroke="#c0c0c0" d="M76.21653083142203 59.689390423630684 L76.21653083142203 59.689390423630684 L75.23258107691491 61.620500548715555 L75.23258107691491 61.620500548715555 z"/>
<path fill="#c0c0c0" stroke="#c0c0c0" d="M76.21653116931425 59.68939050600746 L76.21653116931425 59.68939050600746 L77.07728788942349 57.70029908667198 L77.07728788942349 57.70029908667198 z"/>
<path fill="#c0c0c0" stroke="#c0c0c0" d="M78.88890942849667 51.46465990948277 L78.88890942849667 51.46465990948277 L79.22795673216108 49.32399948242516 L79.22795673216108 49.32399948242516 z"/>
<path fill="#c0c0c0" stroke="#c0c0c0" d="M77.81144883711245 55.661089662149934 L77.81144883711245 55.661089662149934 L78.41611942881673 53.57979983405591 L78.41611942881673 53.57979983405591 z"/>
<path fill="#c0c0c0" stroke="#c0c0c0" d="M78.41611933942839 53.57979985234475 L78.41611933942839 53.57979985234475 L78.88890915374115 51.46465981083874 L78.88890915374115 51.46465981083874 z"/>
<path fill="#c0c0c0" stroke="#c0c0c0" d="M77.811448656391 55.661089516271 L77.811448656391 55.661089516271 L77.07728797048142 57.70029926932835 L77.07728797048142 57.70029926932835 z"/>
<path fill="#c0c0c0" stroke="#c0c0c0" d="M79.50000000000001 44.99999999999999 L79.50000000000001 44.99999999999999 L79.43192222046534 42.833729930219064 L79.43192222046534 42.833729930219064 z"/>
<path fill="#c0c0c0" stroke="#c0c0c0" d="M79.43192222046534 47.16627006978093 L79.43192222046534 47.16627006978093 L79.50000000000003 45 L79.50000000000003 45 z"/>
<path fill="#c0c0c0" stroke="#c0c0c0" d="M79.43192238583357 47.16627022552767 L79.43192238583357 47.16627022552767 L79.22795689770236 49.32399970674653 L79.22795689770236 49.32399970674653 z"/>
<path fill="#c0c0c0" stroke="#c0c0c0" d="M79.22795689770234 40.676000293253466 L79.22795689770234 40.676000293253466 L79.43192238583356 42.833729774472324 L79.43192238583356 42.833729774472324 z"/>
<path fill="#c0c0c0" stroke="#c0c0c0" d="M78.88890942849666 38.53534009051723 L78.88890942849666 38.53534009051723 L79.22795673216108 40.676000517574835 L79.22795673216108 40.676000517574835 z"/>
<path fill="#c0c0c0" stroke="#c0c0c0" d="M76.216530831422 30.310609576369327 L76.216530831422 30.310609576369327 L75.2325810769149 28.37949945128445 L75.2325810769149 28.37949945128445 z"/>
<path fill="#c0c0c0" stroke="#c0c0c0" d="M77.81144865639098 34.338910483729 L77.81144865639098 34.338910483729 L77.07728797048141 32.29970073067165 L77.07728797048141 32.29970073067165 z"/>
<path fill="#c0c0c0" stroke="#c0c0c0" d="M77.07728788942347 32.29970091332802 L77.07728788942347 32.29970091332802 L76.21653116931424 30.310609493992544 L76.21653116931424 30.310609493992544 z"/>
<path fill="#c0c0c0" stroke="#c0c0c0" d="M78.4161194288167 36.42020016594409 L78.4161194288167 36.42020016594409 L77.81144883711244 34.33891033785006 L77.81144883711244 34.33891033785006 z"/>
<path fill="#c0c0c0" stroke="#c0c0c0" d="M78.41611933942838 36.42020014765525 L78.41611933942838 36.42020014765525 L78.88890915374114 38.53534018916126 L78.88890915374114 38.53534018916126 z"/>
<path fill="#c0c0c0" stroke="#c0c0c0" d="M74.12931448068026 26.513977350133075 L74.12931448068026 26.513977350133075 L75.23258111154487 28.37949934263419 L75.23258111154487 28.37949934263419 z"/>
<path fill="#c0c0c0" stroke="#c0c0c0" d="M72.9110880327974 24.721411336909508 L72.9110880327974 24.721411336909508 L74.12931440416598 26.51397700693189 L74.12931440416598 26.51397700693189 z"/>
<path fill="#c0c0c0" stroke="#c0c0c0" d="M70.14941627187838 21.383123286781327 L70.14941627187838 21.383123286781327 L71.5827070745417 23.008872579138426 L71.5827070745417 23.008872579138426 z"/>
<path fill="#c0c0c0" stroke="#c0c0c0" d="M71.58270690953684 23.00887239720895 L71.58270690953684 23.00887239720895 L72.91108827676042 24.721411336681623 L72.91108827676042 24.721411336681623 z"/>
<path fill="#c0c0c0" stroke="#c0c0c0" d="M65.00000000000003 17 L65.00000000000003 16.89958 L65.00000000000003 16.89958 L65.00000000000003 16.89958 L65.00000000000003 16.97065 L65.00000000000003 17 z"/>
<path fill="#c0c0c0" stroke="#c0c0c0" d="M66.99112742086156 18.417292925458295 L66.99112742086156 18.417292925458295 L68.61687671321866 19.85058372812161 L68.61687671321866 19.85058372812161 z"/>
<path fill="#c0c0c0" stroke="#c0c0c0" d="M68.61687640028921 19.850583599710767 L68.61687640028921 19.850583599710767 L70.14941640028923 21.383123599710775 L70.14941640028923 21.383123599710775 z"/>
<path fill="#c0c0c0" stroke="#c0c0c0" d="M64.99999846248765 16.899582262380704 L64.99999846248765 16.899582262380704 L63.99365067245863 16.215669010507174 L63.486022993068104 15.870685595834031 L63.486022993068104 15.870685595834031 L65.27858866309047 17.08891196720261 L65.27858866309047 17.08891196720261 L64.99999846248765 16.899582262380704 z"/>
<path fill="#c0c0c0" stroke="#c0c0c0" d="M25 17.00000000000003 L25 17.00000000000003 L65 17.00000000000003 L65 17.00000000000003 L64.85113 17.00000000000003 L64.68862 17.00000000000003 L64.25351 17.00000000000003 L29.12366 17.00000000000003 L25.23302 17.00000000000003 L25.05807 17.00000000000003 z"/>
<path fill="#c0c0c0" stroke="#c0c0c0" d="M25.000001537512354 16.89958226238073 L25.000001537512354 16.89958226238073 L25.000001537512354 16.89958226238073 L25.000001537512354 16.89958226238073 L24.721411336909533 17.088911967202637 L24.721411336909533 17.088911967202637 L26.513977006931913 15.870685595834056 L26.513977006931913 15.870685595834056 L25.22903901630006 16.743928552529493 z"/>
<path fill="#c0c0c0" stroke="#c0c0c0" d="M25.00000000000003 16.89958 L25.00000000000003 17 L25.00000000000003 17 L25.00000000000003 16.97065 L25.00000000000003 16.89958 L25.00000000000003 16.89958 L25.00000000000003 16.89958 z"/>
<path fill="#c0c0c0" stroke="#c0c0c0" d="M18.417292925458323 23.00887257913845 L18.417292925458323 23.00887257913845 L19.85058372812164 21.383123286781355 L19.85058372812164 21.383123286781355 z"/>
<path fill="#c0c0c0" stroke="#c0c0c0" d="M19.850583599710795 21.3831235997108 L19.850583599710795 21.3831235997108 L21.3831235997108 19.850583599710802 L21.3831235997108 19.850583599710802 z"/>
<path fill="#c0c0c0" stroke="#c0c0c0" d="M17.088911723239598 24.721411336681648 L17.088911723239598 24.721411336681648 L18.41729309046319 23.00887239720898 L18.41729309046319 23.00887239720898 z"/>
<path fill="#c0c0c0" stroke="#c0c0c0" d="M15.87068559583405 26.51397700693191 L15.87068559583405 26.51397700693191 L17.08891196720264 24.721411336909533 L17.08891196720264 24.721411336909533 z"/>
<path fill="#c0c0c0" stroke="#c0c0c0" d="M14.767418888455158 28.37949934263421 L14.767418888455158 28.37949934263421 L15.870685519319776 26.5139773501331 L15.870685519319776 26.5139773501331 z"/>
<path fill="#c0c0c0" stroke="#c0c0c0" d="M13.78346916857803 30.310609576369345 L13.78346916857803 30.310609576369345 L14.767418923085147 28.379499451284474 L14.767418923085147 28.379499451284474 z"/>
<path fill="#c0c0c0" stroke="#c0c0c0" d="M12.922712110576565 32.29970091332804 L12.922712110576565 32.29970091332804 L13.78346883068581 30.310609493992565 L13.78346883068581 30.310609493992565 z"/>
<path fill="#c0c0c0" stroke="#c0c0c0" d="M12.188551343609062 34.33891048372902 L12.188551343609062 34.33891048372902 L12.922712029518639 32.29970073067167 L12.922712029518639 32.29970073067167 z"/>
<path fill="#c0c0c0" stroke="#c0c0c0" d="M11.1110908462589 38.53534018916127 L11.1110908462589 38.53534018916127 L11.583880660571673 36.42020014765526 L11.583880660571673 36.42020014765526 z"/>
<path fill="#c0c0c0" stroke="#c0c0c0" d="M11.583880571183338 36.420200165944095 L11.583880571183338 36.420200165944095 L12.188551162887613 34.33891033785008 L12.188551162887613 34.33891033785008 z"/>
<path fill="#c0c0c0" stroke="#c0c0c0" d="M10.772043267838974 40.67600051757485 L10.772043267838974 40.67600051757485 L11.111090571503382 38.53534009051724 L11.111090571503382 38.53534009051724 z"/>
<path fill="#c0c0c0" stroke="#c0c0c0" d="M10.568077614166482 42.83372977447233 L10.568077614166482 42.83372977447233 L10.772043102297705 40.67600029325347 L10.772043102297705 40.67600029325347 z"/>
<path fill="#c0c0c0" stroke="#c0c0c0" d="M10.500000000000025 45 L10.500000000000025 45 L10.568077779534716 42.833729930219064 L10.568077779534716 42.833729930219064 z"/>
<path fill="#c0c0c0" stroke="#c0c0c0" d="M10.568077779534708 47.16627006978093 L10.568077779534708 47.16627006978093 L10.50000000000003 44.99999999999999 L10.50000000000003 44.99999999999999 z"/>
<path fill="#c0c0c0" stroke="#c0c0c0" d="M10.772043102297696 49.32399970674652 L10.772043102297696 49.32399970674652 L10.568077614166484 47.16627022552766 L10.568077614166484 47.16627022552766 z"/>
<path fill="#c0c0c0" stroke="#c0c0c0" d="M11.111090571503368 51.464659909482755 L11.111090571503368 51.464659909482755 L10.772043267838974 49.32399948242515 L10.772043267838974 49.32399948242515 z"/>
<path fill="#c0c0c0" stroke="#c0c0c0" d="M11.583880660571653 53.579799852344735 L11.583880660571653 53.579799852344735 L11.111090846258895 51.464659810838725 L11.111090846258895 51.464659810838725 z"/>
<path fill="#c0c0c0" stroke="#c0c0c0" d="M12.188551162887592 55.66108966214992 L12.188551162887592 55.66108966214992 L11.583880571183327 53.5797998340559 L11.583880571183327 53.5797998340559 z"/>
<path fill="#c0c0c0" stroke="#c0c0c0" d="M12.92271202951862 57.70029926932833 L12.92271202951862 57.70029926932833 L12.18855134360905 55.66108951627098 L12.18855134360905 55.66108951627098 z"/>
<path fill="#c0c0c0" stroke="#c0c0c0" d="M14.767418923085119 61.62050054871553 L14.767418923085119 61.62050054871553 L13.783469168578012 59.68939042363066 L13.783469168578012 59.68939042363066 z"/>
<path fill="#c0c0c0" stroke="#c0c0c0" d="M13.783468830685784 59.68939050600744 L13.783468830685784 59.68939050600744 L12.922712110576557 57.70029908667196 L12.922712110576557 57.70029908667196 z"/>
<path fill="#c0c0c0" stroke="#c0c0c0" d="M15.87068551931975 63.48602264986691 L15.87068551931975 63.48602264986691 L14.76741888845514 61.620500657365795 L14.76741888845514 61.620500657365795 z"/>
<path fill="#c0c0c0" stroke="#c0c0c0" d="M18.417293090463158 66.99112760279104 L18.417293090463158 66.99112760279104 L17.08891172323957 65.27858866331836 L17.08891172323957 65.27858866331836 z"/>
<path fill="#c0c0c0" stroke="#c0c0c0" d="M17.088911967202606 65.27858866309047 L17.088911967202606 65.27858866309047 L15.870685595834034 63.4860229930681 L15.870685595834034 63.4860229930681 z"/>
<path fill="#c0c0c0" stroke="#c0c0c0" d="M19.85058372812161 68.61687671321866 L19.85058372812161 68.61687671321866 L18.417292925458298 66.99112742086156 L18.417292925458298 66.99112742086156 z"/>
<path fill="#c0c0c0" stroke="#c0c0c0" d="M21.38312359971077 70.14941640028923 L21.38312359971077 70.14941640028923 L19.850583599710774 68.61687640028921 L19.850583599710774 68.61687640028921 z"/>
<path fill="#c0c0c0" stroke="#c0c0c0" d="M23.008872579138423 71.5827070745417 L23.008872579138423 71.5827070745417 L21.383123286781334 70.14941627187838 L21.383123286781334 70.14941627187838 z"/>
<path fill="#c0c0c0" stroke="#c0c0c0" d="M24.72141133668162 72.91108827676042 L24.72141133668162 72.91108827676042 L23.008872397208954 71.58270690953684 L23.008872397208954 71.58270690953684 z"/>
<path fill="#c0c0c0" stroke="#c0c0c0" d="M28.379499342634187 75.23258111154487 L28.379499342634187 75.23258111154487 L26.51397735013308 74.12931448068025 L26.51397735013308 74.12931448068025 z"/>
<path fill="#c0c0c0" stroke="#c0c0c0" d="M26.513977006931885 74.12931440416598 L26.513977006931885 74.12931440416598 L24.72141133690951 72.91108803279738 L24.72141133690951 72.91108803279738 z"/>
<path fill="#c0c0c0" stroke="#c0c0c0" d="M30.310609576369327 76.216530831422 L30.310609576369327 76.216530831422 L28.379499451284453 75.23258107691488 L28.379499451284453 75.23258107691488 z"/>
<path fill="#c0c0c0" stroke="#c0c0c0" d="M32.29970073067165 77.07728797048141 L32.29970073067165 77.07728797048141 L34.338910483729 77.81144865639098 L34.338910483729 77.81144865639098 z"/>
<path fill="#c0c0c0" stroke="#c0c0c0" d="M36.42020016594408 78.41611942881671 L36.42020016594408 78.41611942881671 L34.33891033785006 77.81144883711244 L34.33891033785006 77.81144883711244 z"/>
<path fill="#c0c0c0" stroke="#c0c0c0" d="M32.29970091332802 77.07728788942347 L32.29970091332802 77.07728788942347 L30.310609493992548 76.21653116931422 L30.310609493992548 76.21653116931422 z"/>
<path fill="#c0c0c0" stroke="#c0c0c0" d="M38.53534018916125 78.88890915374115 L38.53534018916125 78.88890915374115 L36.42020014765525 78.41611933942836 L36.42020014765525 78.41611933942836 z"/>
<path fill="#c0c0c0" stroke="#c0c0c0" d="M40.676000517574835 79.22795673216108 L40.676000517574835 79.22795673216108 L38.53534009051723 78.88890942849666 L38.53534009051723 78.88890942849666 z"/>
<path fill="#c0c0c0" stroke="#c0c0c0" d="M40.676000293253466 79.22795689770234 L40.676000293253466 79.22795689770234 L42.833729774472324 79.43192238583356 L42.833729774472324 79.43192238583356 z"/>
<path fill="#c0c0c0" stroke="#c0c0c0" d="M40.676 79.22796 L42.83373 79.43192 L45 79.5 L47.16627 79.43192 L49.324 79.22796 L51.46466 78.88891 L53.5798 78.41612 L55.66109 77.81145 L57.7003 77.07729 L59.68939 76.21653 L61.6205 75.23258 L63.48602 74.12931 L65.27859 72.91109 L66.99113 71.58271 L68.61688 70.14942 L70.14942 68.61688 L71.58271 66.99113 L72.91109 65.27859 L74.12931 63.48602 L75.23258 61.6205 L76.21653 59.68939 L77.07729 57.7003 L77.81145 55.66109 L78.41612 53.5798 L78.88891 51.46466 L79.22796 49.324 L79.43192 47.16627 L79.5 45 L79.43192 42.83373 L79.22796 40.676 L78.88891 38.53534 L78.41612 36.4202 L77.81145 34.33891 L77.07729 32.2997 L76.21653 30.31061 L75.23258 28.3795 L74.12931 26.51398 L72.91109 24.72141 L71.58271 23.00887 L70.14942 21.38312 L68.61688 19.85058 L66.99113 18.41729 L65.27859 17.08891 L63.48602 15.87069 L61.6205 14.76742 L59.68939 13.78347 L57.7003 12.92271 L55.66109 12.18855 L53.5798 11.58388 L51.46466 11.11109 L49.324 10.77204 L47.16627 10.56808 L45 10.5 L42.83373 10.56808 L40.676 10.77204 L38.53534 11.11109 L36.4202 11.58388 L34.33891 12.18855 L32.2997 12.92271 L30.31061 13.78347 L28.3795 14.76742 L26.51398 15.87069 L24.72141 17.08891 L23.00887 18.41729 L21.38312 19.85058 L19.85058 21.38312 L18.41729 23.00887 L17.08891 24.72141 L15.87069 26.51398 L14.76742 28.3795 L13.78347 30.31061 L12.92271 32.2997 L12.18855 34.33891 L11.58388 36.4202 L11.11109 38.53534 L10.77204 40.676 L10.56808 42.83373 L10.5 45 L10.56808 47.16627 L10.77204 49.324 L11.11109 51.46466 L11.58388 53.5798 L12.18855 55.66109 L12.92271 57.7003 L13.78347 59.68939 L14.76742 61.6205 L15.87069 63.48602 L17.08891 65.27859 L18.41729 66.99113 L19.85058 68.61688 L21.38312 70.14942 L23.00887 71.58271 L24.72141 72.91109 L26.51398 74.12931 L28.3795 75.23258 L30.31061 76.21653 L32.2997 77.07729 L34.33891 77.81145 L36.4202 78.41612 L38.53534 78.88891 z"/>
<path fill="#c0c0c0" stroke="#c0c0c0" d="M66.99112760279104 18.417293090463158 L65.27858866331836 17.08891172323957 L65.27858866331836 17.08891172323957 L66.99112760279104 18.417293090463158 z"/>
<path fill="#c0c0c0" stroke="#c0c0c0" d="M61.620500657365795 14.767418888455133 L61.620500657365795 14.767418888455133 L63.48602264986691 15.870685519319753 L63.48602264986691 15.870685519319753 L62.14879072963444 15.079848766255521 z"/>
<path fill="#c0c0c0" stroke="#c0c0c0" d="M59.68939042363066 13.783469168578009 L59.68939042363066 13.783469168578009 L61.62050054871553 14.76741892308512 L61.62050054871553 14.76741892308512 L60.23625079282131 14.062108444000561 z"/>
<path fill="#c0c0c0" stroke="#c0c0c0" d="M58.263577985052706 13.166464656268454 L57.70029908667197 12.922712110576548 L57.70029908667197 12.922712110576548 L59.68939050600744 13.783468830685788 L59.68939050600744 13.783468830685788 z"/>
<path fill="#c0c0c0" stroke="#c0c0c0" d="M57.70029926932833 12.92271202951862 L56.23855888115822 12.39645310770259 L55.66108951627098 12.188551343609046 L55.66108951627098 12.188551343609046 L57.70029926932833 12.92271202951862 z"/>
<path fill="#c0c0c0" stroke="#c0c0c0" d="M54.169188863113845 11.755113913187806 L53.5797998340559 11.583880571183323 L53.5797998340559 11.583880571183323 L55.66108966214992 12.188551162887595 L55.66108966214992 12.188551162887595 z"/>
<path fill="#c0c0c0" stroke="#c0c0c0" d="M53.579799852344735 11.583880660571658 L52.06363073532034 11.244976710365918 L51.464659810838725 11.11109084625889 L51.464659810838725 11.11109084625889 L53.579799852344735 11.583880660571658 z"/>
<path fill="#c0c0c0" stroke="#c0c0c0" d="M49.930200618414155 10.868056095486684 L49.32399948242515 10.772043267838967 L49.32399948242515 10.772043267838967 L51.464659909482755 11.11109057150337 L51.464659909482755 11.11109057150337 z"/>
<path fill="#c0c0c0" stroke="#c0c0c0" d="M45 10.500000000000028 L43.44717997910449 10.548799335094133 L42.833729930219064 10.568077779534713 L42.833729930219064 10.568077779534713 L45 10.500000000000028 z"/>
<path fill="#c0c0c0" stroke="#c0c0c0" d="M47.16627006978093 10.56807777953471 L45.61346003901907 10.519278758393204 L44.99999999999999 10.500000000000027 L44.99999999999999 10.500000000000027 L47.16627006978093 10.56807777953471 z"/>
<path fill="#c0c0c0" stroke="#c0c0c0" d="M49.32399970674652 10.772043102297697 L47.77731019873553 10.625837897597666 L47.16627022552766 10.568077614166478 L47.16627022552766 10.568077614166478 L49.32399970674652 10.772043102297697 z"/>
<path fill="#c0c0c0" stroke="#c0c0c0" d="M40.67600029325347 10.772043102297701 L40.67600029325347 10.772043102297701 L42.83372977447233 10.568077614166489 L42.83372977447233 10.568077614166489 L41.28704026646133 10.714282818866517 z"/>
<path fill="#c0c0c0" stroke="#c0c0c0" d="M37.01918059627213 11.449992667568187 L36.42020014765526 11.583880660571673 L36.42020014765526 11.583880660571673 L38.53534018916127 11.1110908462589 L38.53534018916127 11.1110908462589 z"/>
<path fill="#c0c0c0" stroke="#c0c0c0" d="M40.67600051757485 10.772043267838978 L40.31614968954075 10.829038039837478 L39.141549436703855 11.015076443488105 L38.53534009051724 11.111090571503373 L38.53534009051724 11.111090571503373 L40.67600051757485 10.772043267838978 z"/>
<path fill="#c0c0c0" stroke="#c0c0c0" d="M32.87717894812513 12.71480707830514 L32.29970073067167 12.922712029518634 L32.29970073067167 12.922712029518634 L34.33891048372902 12.188551343609062 L34.33891048372902 12.188551343609062 z"/>
<path fill="#c0c0c0" stroke="#c0c0c0" d="M32.29970091332804 12.922712110576567 L30.87390045995197 13.539711062886292 L30.310609493992562 13.783468830685807 L30.310609493992562 13.783468830685807 L32.29970091332804 12.922712110576567 z"/>
<path fill="#c0c0c0" stroke="#c0c0c0" d="M36.4202001659441 11.583880571183345 L34.92829936690802 12.017317820883127 L34.33891033785007 12.188551162887606 L34.33891033785007 12.188551162887606 L36.4202001659441 11.583880571183345 z"/>
<path fill="#c0c0c0" stroke="#c0c0c0" d="M28.379499342634215 14.767418888455161 L27.04226742240175 15.55825564151939 L26.5139773501331 15.870685519319775 L26.5139773501331 15.870685519319775 L28.379499342634215 14.767418888455161 z"/>
<path fill="#c0c0c0" stroke="#c0c0c0" d="M28.37949945128447 14.767418923085142 L28.37949945128447 14.767418923085142 L30.310609576369348 13.783469168578035 L30.310609576369348 13.783469168578035 L28.92635982047512 14.48877964766259 z"/>
<path fill="#c0c0c0" stroke="#c0c0c0" d="M24.72141133668165 17.0889117232396 L23.00887239720897 18.417293090463186 L23.00887239720897 18.417293090463186 L24.72141133668165 17.0889117232396 z"/>
<path fill="#c0c0c0" stroke="#c0c0c0" d="M23.00887257913845 18.417292925458327 L21.383123286781352 19.85058372812164 L21.383123286781352 19.85058372812164 L23.00887257913845 18.417292925458327 z"/>
<path fill="#c0c0c0" stroke="#c0c0c0" d="M25 17 L25 16.89958 L25.22904 16.74393 L26.51398 15.87069 L27.04227 15.55826 L28.3795 14.76742 L28.92636 14.48878 L30.31061 13.78347 L30.8739 13.53971 L32.2997 12.92271 L32.87718 12.71481 L34.33891 12.18855 L34.9283 12.01732 L36.4202 11.58388 L37.01918 11.44999 L38.53534 11.11109 L39.14155 11.01508 L40.31615 10.82904 L40.676 10.77204 L41.28704 10.71428 L42.83373 10.56808 L43.44718 10.5488 L45 10.5 L45.61346 10.51928 L47.16627 10.56808 L47.77731 10.62584 L49.324 10.77204 L49.9302 10.86806 L51.46466 11.11109 L52.06363 11.24498 L53.5798 11.58388 L54.16919 11.75511 L55.66109 12.18855 L56.23856 12.39645 L57.7003 12.92271 L58.26358 13.16646 L59.68939 13.78347 L60.23625 14.06211 L61.6205 14.76742 L62.14879 15.07985 L63.48602 15.87069 L63.99365 16.21567 L65 16.89958 L65 17 z"/>
<path fill="#ffff00" stroke="#ffff00" d="M42.17443 89.9112 L39.36 89.64516 L36.56784 89.20293 L33.80896 88.58624 L31.09424 87.79754 L28.4344 86.83994 L25.83993 85.71722 L23.32108 84.4338 L20.88779 82.99476 L18.54966 81.40576 L16.31592 79.6731 L14.19538 77.80359 L12.19641 75.80462 L10.3269 73.68408 L8.59424 71.45034 L7.00524 69.11221 L5.5662 66.67892 L4.28278 64.16007 L3.16006 61.5656 L2.20246 58.90576 L1.41376 56.19104 L0.79707 53.43216 L0.35484 50.64 L0.0888 47.82557 L0 45 L0.0888 42.17443 L0.35484 39.36 L0.79707 36.56784 L1.41376 33.80896 L2.20246 31.09424 L3.16006 28.4344 L4.28278 25.83993 L5.5662 23.32108 L7.00524 20.88779 L8.59424 18.54966 L10.3269 16.31592 L12.19641 14.19538 L14.19538 12.19641 L16.31592 10.3269 L18.54966 8.59424 L20.88779 7.00524 L23.32108 5.5662 L25.83993 4.28278 L28.4344 3.16006 L31.09424 2.20246 L33.80896 1.41376 L36.56784 0.79707 L39.36 0.35484 L42.17443 0.0888 L45 0 L47.82557 0.0888 L50.64 0.35484 L53.43216 0.79707 L56.19104 1.41376 L58.90576 2.20246 L61.5656 3.16006 L64.16007 4.28278 L66.67892 5.5662 L69.11221 7.00524 L71.45034 8.59424 L73.68408 10.3269 L75.80462 12.19641 L77.80359 14.19538 L79.6731 16.31592 L81.40576 18.54966 L82.99476 20.88779 L84.4338 23.32108 L85.71722 25.83993 L86.83994 28.4344 L87.79754 31.09424 L88.58624 33.80896 L89.20293 36.56784 L89.64516 39.36 L89.9112 42.17443 L90 45 L89.9112 47.82557 L89.64516 50.64 L89.20293 53.43216 L88.58624 56.19104 L87.79754 58.90576 L86.83994 61.5656 L85.71722 64.16007 L84.4338 66.67892 L82.99476 69.11221 L81.40576 71.45034 L79.6731 73.68408 L77.80359 75.80462 L75.80462 77.80359 L73.68408 79.6731 L71.45034 81.40576 L69.11221 82.99476 L66.67892 84.4338 L64.16007 85.71722 L61.5656 86.83994 L58.90576 87.79754 L56.19104 88.58624 L53.43216 89.20293 L50.64 89.64516 L47.82557 89.9112 L45 90 z"/>
<path fill="#ffff00" stroke="#ffff00" d="M47.82557029031593 89.91120307122175 L47.82557029031593 89.91120307122175 L50.64000010631629 89.64516112470893 L50.64000010631629 89.64516112470893 z"/>
<path fill="#ffff00" stroke="#ffff00" d="M45 90.00000000000003 L45 90.00000000000003 L47.825570090589636 89.91120288260902 L47.825570090589636 89.91120288260902 z"/>
<path fill="#ffff00" stroke="#ffff00" d="M53.432159405014225 89.20292624340767 L53.432159405014225 89.20292624340767 L50.64000013103367 89.64516082731404 L50.64000013103367 89.64516082731404 z"/>
<path fill="#ffff00" stroke="#ffff00" d="M42.17442990941036 89.911202882609 L42.17442990941036 89.911202882609 L44.99999999999999 90.00000000000001 L44.99999999999999 90.00000000000001 z"/>
<path fill="#ffff00" stroke="#ffff00" d="M56.19104071341009 88.58624319161326 L56.19104071341009 88.58624319161326 L53.43215916849873 89.20292628007715 L53.43215916849873 89.20292628007715 z"/>
<path fill="#ffff00" stroke="#ffff00" d="M58.90576123571731 87.79754425336687 L58.90576123571731 87.79754425336687 L56.19104098615792 88.58624339437783 L56.19104098615792 88.58624339437783 z"/>
<path fill="#ffff00" stroke="#ffff00" d="M61.565601153281996 86.83994320336396 L61.565601153281996 86.83994320336396 L58.90576157515794 87.7975443751695 L58.90576157515794 87.7975443751695 z"/>
<path fill="#ffff00" stroke="#ffff00" d="M64.16006874165713 85.71721709214118 L64.16006874165713 85.71721709214118 L61.56560144800844 86.83994334615006 L61.56560144800844 86.83994334615006 z"/>
<path fill="#ffff00" stroke="#ffff00" d="M66.67891928192552 84.43379859069947 L66.67891928192552 84.43379859069947 L64.16006854509672 85.71721714459153 L64.16006854509672 85.71721714459153 z"/>
<path fill="#ffff00" stroke="#ffff00" d="M69.1122074360904 82.99475566466563 L69.1122074360904 82.99475566466563 L66.67891905483776 84.43379840181792 L66.67891905483776 84.43379840181792 z"/>
<path fill="#ffff00" stroke="#ffff00" d="M77.8035888906252 75.80461902195455 L77.8035888906252 75.80461902195455 L79.67309747824751 73.6840777767761 L79.67309747824751 73.6840777767761 z"/>
<path fill="#ffff00" stroke="#ffff00" d="M71.45034105459138 81.40576155178408 L71.45034105459138 81.40576155178408 L69.11220710636884 82.99475574215106 L69.11220710636884 82.99475574215106 z"/>
<path fill="#ffff00" stroke="#ffff00" d="M73.68407785317544 79.67309723233048 L73.68407785317544 79.67309723233048 L71.45034092891707 81.40576119755266 L71.45034092891707 81.40576119755266 z"/>
<path fill="#ffff00" stroke="#ffff00" d="M75.80461902195457 77.8035888906252 L75.80461902195457 77.8035888906252 L73.6840777767761 79.67309747824751 L73.6840777767761 79.67309747824751 z"/>
<path fill="#ffff00" stroke="#ffff00" d="M75.80461900037727 77.80358900037729 L75.80461900037727 77.80358900037729 L77.80358900037727 75.80461900037727 L77.80358900037727 75.80461900037727 z"/>
<path fill="#ffff00" stroke="#ffff00" d="M81.40576119755268 71.45034092891707 L81.40576119755268 71.45034092891707 L79.67309723233046 73.68407785317544 L79.67309723233046 73.68407785317544 z"/>
<path fill="#ffff00" stroke="#ffff00" d="M82.99475574215106 69.11220710636884 L82.99475574215106 69.11220710636884 L81.4057615517841 71.45034105459138 L81.4057615517841 71.45034105459138 z"/>
<path fill="#ffff00" stroke="#ffff00" d="M84.43379840181792 66.67891905483776 L84.43379840181792 66.67891905483776 L82.99475566466563 69.1122074360904 L82.99475566466563 69.1122074360904 z"/>
<path fill="#ffff00" stroke="#ffff00" d="M85.71721714459153 64.16006854509672 L85.71721714459153 64.16006854509672 L84.43379859069947 66.67891928192552 L84.43379859069947 66.67891928192552 z"/>
<path fill="#ffff00" stroke="#ffff00" d="M86.83994320336396 61.565601153281996 L86.83994320336396 61.565601153281996 L87.7975443751695 58.90576157515794 L87.7975443751695 58.90576157515794 z"/>
<path fill="#ffff00" stroke="#ffff00" d="M86.83994334615006 61.565601448008444 L86.83994334615006 61.565601448008444 L85.71721709214118 64.16006874165713 L85.71721709214118 64.16006874165713 z"/>
<path fill="#ffff00" stroke="#ffff00" d="M88.58624339437783 56.19104098615792 L88.58624339437783 56.19104098615792 L87.79754425336687 58.90576123571731 L87.79754425336687 58.90576123571731 z"/>
<path fill="#ffff00" stroke="#ffff00" d="M89.20292628007716 53.432159168498735 L89.20292628007716 53.432159168498735 L88.58624319161328 56.19104071341009 L88.58624319161328 56.19104071341009 z"/>
<path fill="#ffff00" stroke="#ffff00" d="M89.64516082731404 50.64000013103367 L89.64516082731404 50.64000013103367 L89.20292624340767 53.43215940501423 L89.20292624340767 53.43215940501423 z"/>
<path fill="#ffff00" stroke="#ffff00" d="M89.91120307122175 47.82557029031593 L89.91120307122175 47.82557029031593 L89.64516112470892 50.64000010631629 L89.64516112470892 50.64000010631629 z"/>
<path fill="#ffff00" stroke="#ffff00" d="M90.00000000000003 45 L90.00000000000003 45 L89.91120288260902 47.825570090589636 L89.91120288260902 47.825570090589636 z"/>
<path fill="#ffff00" stroke="#ffff00" d="M89.64516112470892 39.3599998936837 L89.64516112470892 39.3599998936837 L89.91120307122175 42.17442970968406 L89.91120307122175 42.17442970968406 z"/>
<path fill="#ffff00" stroke="#ffff00" d="M89.91120288260902 42.17442990941036 L89.91120288260902 42.17442990941036 L90.00000000000001 44.99999999999999 L90.00000000000001 44.99999999999999 z"/>
<path fill="#ffff00" stroke="#ffff00" d="M89.20292624340766 36.56784059498577 L89.20292624340766 36.56784059498577 L89.64516082731404 39.35999986896633 L89.64516082731404 39.35999986896633 z"/>
<path fill="#ffff00" stroke="#ffff00" d="M88.58624339437782 33.80895901384208 L88.58624339437782 33.80895901384208 L87.79754425336685 31.094238764282697 L87.79754425336685 31.094238764282697 z"/>
<path fill="#ffff00" stroke="#ffff00" d="M85.7172171445915 25.83993145490329 L85.7172171445915 25.83993145490329 L84.43379859069944 23.321080718074498 L84.43379859069944 23.321080718074498 z"/>
<path fill="#ffff00" stroke="#ffff00" d="M86.83994320336394 28.434398846718008 L86.83994320336394 28.434398846718008 L87.79754437516948 31.09423842484206 L87.79754437516948 31.09423842484206 z"/>
<path fill="#ffff00" stroke="#ffff00" d="M86.83994334615005 28.434398551991567 L86.83994334615005 28.434398551991567 L85.71721709214115 25.83993125834288 L85.71721709214115 25.83993125834288 z"/>
<path fill="#ffff00" stroke="#ffff00" d="M88.58624319161325 33.80895928658991 L88.58624319161325 33.80895928658991 L89.20292628007714 36.567840831501265 L89.20292628007714 36.567840831501265 z"/>
<path fill="#ffff00" stroke="#ffff00" d="M82.9947556646656 20.887792563909606 L82.9947556646656 20.887792563909606 L84.4337984018179 23.321080945162254 L84.4337984018179 23.321080945162254 z"/>
<path fill="#ffff00" stroke="#ffff00" d="M81.40576155178405 18.549658945408638 L81.40576155178405 18.549658945408638 L82.99475574215103 20.88779289363116 L82.99475574215103 20.88779289363116 z"/>
<path fill="#ffff00" stroke="#ffff00" d="M79.67309723233043 16.31592214682457 L79.67309723233043 16.31592214682457 L81.40576119755264 18.549659071082946 L81.40576119755264 18.549659071082946 z"/>
<path fill="#ffff00" stroke="#ffff00" d="M77.80358889062518 14.195380978045462 L77.80358889062518 14.195380978045462 L79.67309747824748 16.3159222232239 L79.67309747824748 16.3159222232239 z"/>
<path fill="#ffff00" stroke="#ffff00" d="M75.80461900037724 12.196410999622744 L75.80461900037724 12.196410999622744 L77.80358900037724 14.195380999622746 L77.80358900037724 14.195380999622746 z"/>
<path fill="#ffff00" stroke="#ffff00" d="M73.68407777677609 10.326902521752512 L73.68407777677609 10.326902521752512 L75.80461902195452 12.196411109374816 L75.80461902195452 12.196411109374816 z"/>
<path fill="#ffff00" stroke="#ffff00" d="M71.45034092891704 8.594238802447355 L71.45034092891704 8.594238802447355 L73.68407785317541 10.32690276766956 L73.68407785317541 10.32690276766956 z"/>
<path fill="#ffff00" stroke="#ffff00" d="M69.11220743609037 7.005244335334407 L69.11220743609037 7.005244335334407 L66.67891905483773 5.566201598182104 L66.67891905483773 5.566201598182104 z"/>
<path fill="#ffff00" stroke="#ffff00" d="M69.11220710636883 7.005244257848974 L69.11220710636883 7.005244257848974 L71.45034105459135 8.594238448215943 L71.45034105459135 8.594238448215943 z"/>
<path fill="#ffff00" stroke="#ffff00" d="M64.1600687416571 4.282782907858859 L64.1600687416571 4.282782907858859 L61.565601448008415 3.1600566538499772 L61.565601448008415 3.1600566538499772 z"/>
<path fill="#ffff00" stroke="#ffff00" d="M64.16006854509669 4.282782855408505 L64.16006854509669 4.282782855408505 L66.67891928192549 5.56620140930057 L66.67891928192549 5.56620140930057 z"/>
<path fill="#ffff00" stroke="#ffff00" d="M58.905761575157925 2.202455624830549 L58.905761575157925 2.202455624830549 L61.565601153281975 3.160056796636082 L61.565601153281975 3.160056796636082 z"/>
<path fill="#ffff00" stroke="#ffff00" d="M56.19104098615791 1.413756605622207 L56.19104098615791 1.413756605622207 L58.905761235717286 2.202455746633185 L58.905761235717286 2.202455746633185 z"/>
<path fill="#ffff00" stroke="#ffff00" d="M53.43215916849872 0.7970737199228873 L53.43215916849872 0.7970737199228873 L56.191040713410075 1.4137568083867753 L56.191040713410075 1.4137568083867753 z"/>
<path fill="#ffff00" stroke="#ffff00" d="M50.64000013103366 0.3548391726859988 L50.64000013103366 0.3548391726859988 L53.43215940501422 0.7970737565923687 L53.43215940501422 0.7970737565923687 z"/>
<path fill="#ffff00" stroke="#ffff00" d="M47.82557029031592 0.08879692877829333 L47.82557029031592 0.08879692877829333 L50.640000106316286 0.35483887529112196 L50.640000106316286 0.35483887529112196 z"/>
<path fill="#ffff00" stroke="#ffff00" d="M44.99999999999999 2.6473747382528435e-14 L44.99999999999999 2.6473747382528435e-14 L47.82557009058963 0.0887971173910296 L47.82557009058963 0.0887971173910296 z"/>
<path fill="#ffff00" stroke="#ffff00" d="M42.174429909410364 0.08879711739103346 L42.174429909410364 0.08879711739103346 L45 3.031358772704064e-14 L45 3.031358772704064e-14 z"/>
<path fill="#ffff00" stroke="#ffff00" d="M33.80895901384209 1.4137566056222264 L33.80895901384209 1.4137566056222264 L31.09423876428271 2.2024557466332 L31.09423876428271 2.2024557466332 z"/>
<path fill="#ffff00" stroke="#ffff00" d="M36.56784083150128 0.7970737199229014 L36.56784083150128 0.7970737199229014 L33.80895928658992 1.4137568083867873 L33.80895928658992 1.4137568083867873 z"/>
<path fill="#ffff00" stroke="#ffff00" d="M39.359999868966334 0.3548391726860054 L39.359999868966334 0.3548391726860054 L36.567840594985775 0.7970737565923749 L36.567840594985775 0.7970737565923749 z"/>
<path fill="#ffff00" stroke="#ffff00" d="M39.35999989368371 0.3548388752911203 L39.35999989368371 0.3548388752911203 L42.17442970968407 0.08879692877830482 L42.17442970968407 0.08879692877830482 z"/>
<path fill="#ffff00" stroke="#ffff00" d="M28.43439884671803 3.160056796636093 L28.43439884671803 3.160056796636093 L31.09423842484208 2.202455624830572 L31.09423842484208 2.202455624830572 z"/>
<path fill="#ffff00" stroke="#ffff00" d="M25.8399312583429 4.282782907858877 L25.8399312583429 4.282782907858877 L28.43439855199159 3.1600566538499946 L28.43439855199159 3.1600566538499946 z"/>
<path fill="#ffff00" stroke="#ffff00" d="M20.887792563909635 7.005244335334432 L20.887792563909635 7.005244335334432 L23.321080945162276 5.566201598182131 L23.321080945162276 5.566201598182131 z"/>
<path fill="#ffff00" stroke="#ffff00" d="M23.321080718074512 5.566201409300591 L23.321080718074512 5.566201409300591 L25.83993145490331 4.282782855408531 L25.83993145490331 4.282782855408531 z"/>
<path fill="#ffff00" stroke="#ffff00" d="M18.549658945408662 8.594238448215972 L18.549658945408662 8.594238448215972 L20.887792893631193 7.005244257849005 L20.887792893631193 7.005244257849005 z"/>
<path fill="#ffff00" stroke="#ffff00" d="M16.31592214682459 10.32690276766959 L16.31592214682459 10.32690276766959 L18.549659071082974 8.59423880244739 L18.549659071082974 8.59423880244739 z"/>
<path fill="#ffff00" stroke="#ffff00" d="M14.19538097804549 12.196411109374846 L14.19538097804549 12.196411109374846 L16.31592222322393 10.326902521752547 L16.31592222322393 10.326902521752547 z"/>
<path fill="#ffff00" stroke="#ffff00" d="M12.196410999622772 14.195380999622774 L12.196410999622772 14.195380999622774 L14.195380999622778 12.19641099962278 L14.195380999622778 12.19641099962278 z"/>
<path fill="#ffff00" stroke="#ffff00" d="M10.326902521752546 16.315922223223925 L10.326902521752546 16.315922223223925 L12.196411109374848 14.195380978045492 L12.196411109374848 14.195380978045492 z"/>
<path fill="#ffff00" stroke="#ffff00" d="M8.594238802447382 18.54965907108297 L8.594238802447382 18.54965907108297 L10.326902767669598 16.315922146824597 L10.326902767669598 16.315922146824597 z"/>
<path fill="#ffff00" stroke="#ffff00" d="M7.005244257849 20.88779289363119 L7.005244257849 20.88779289363119 L8.594238448215973 18.549658945408662 L8.594238448215973 18.549658945408662 z"/>
<path fill="#ffff00" stroke="#ffff00" d="M5.566201598182129 23.321080945162272 L5.566201598182129 23.321080945162272 L7.005244335334436 20.887792563909635 L7.005244335334436 20.887792563909635 z"/>
<path fill="#ffff00" stroke="#ffff00" d="M4.282782855408527 25.83993145490331 L4.282782855408527 25.83993145490331 L5.566201409300598 23.32108071807452 L5.566201409300598 23.32108071807452 z"/>
<path fill="#ffff00" stroke="#ffff00" d="M3.1600566538499915 28.43439855199159 L3.1600566538499915 28.43439855199159 L4.282782907858885 25.839931258342904 L4.282782907858885 25.839931258342904 z"/>
<path fill="#ffff00" stroke="#ffff00" d="M2.202455746633203 31.09423876428271 L2.202455746633203 31.09423876428271 L1.413756605622228 33.80895901384209 L1.413756605622228 33.80895901384209 z"/>
<path fill="#ffff00" stroke="#ffff00" d="M2.2024556248305647 31.09423842484208 L2.2024556248305647 31.09423842484208 L3.1600567966360997 28.43439884671803 L3.1600567966360997 28.43439884671803 z"/>
<path fill="#ffff00" stroke="#ffff00" d="M0.08879692877830131 42.17442970968407 L0.08879692877830131 42.17442970968407 L0.35483887529112673 39.35999989368371 L0.35483887529112673 39.35999989368371 z"/>
<path fill="#ffff00" stroke="#ffff00" d="M0.797073756592384 36.567840594985775 L0.797073756592384 36.567840594985775 L0.354839172686002 39.359999868966334 L0.354839172686002 39.359999868966334 z"/>
<path fill="#ffff00" stroke="#ffff00" d="M0.7970737199229001 36.56784083150128 L0.7970737199229001 36.56784083150128 L1.4137568083867995 33.808959286589925 L1.4137568083867995 33.808959286589925 z"/>
<path fill="#ffff00" stroke="#ffff00" d="M0.3548388752911166 50.640000106316286 L0.3548388752911166 50.640000106316286 L0.08879692877830206 47.82557029031592 L0.08879692877830206 47.82557029031592 z"/>
<path fill="#ffff00" stroke="#ffff00" d="M3.2066200346073354e-14 44.99999999999999 L3.2066200346073354e-14 44.99999999999999 L0.0887971173910278 47.82557009058963 L0.0887971173910278 47.82557009058963 z"/>
<path fill="#ffff00" stroke="#ffff00" d="M2.4721134763494832e-14 45 L2.4721134763494832e-14 45 L0.08879711739104176 42.174429909410364 L0.08879711739104176 42.174429909410364 z"/>
<path fill="#ffff00" stroke="#ffff00" d="M0.7970737565923649 53.43215940501422 L0.7970737565923649 53.43215940501422 L0.35483917268600396 50.64000013103366 L0.35483917268600396 50.64000013103366 z"/>
<path fill="#ffff00" stroke="#ffff00" d="M1.413756808386773 56.191040713410075 L1.413756808386773 56.191040713410075 L0.7970737199228931 53.43215916849872 L0.7970737199228931 53.43215916849872 z"/>
<path fill="#ffff00" stroke="#ffff00" d="M2.202455746633178 58.90576123571729 L2.202455746633178 58.90576123571729 L1.4137566056222164 56.19104098615791 L1.4137566056222164 56.19104098615791 z"/>
<path fill="#ffff00" stroke="#ffff00" d="M3.1600567966360753 61.565601153281975 L3.1600567966360753 61.565601153281975 L2.202455624830553 58.905761575157925 L2.202455624830553 58.905761575157925 z"/>
<path fill="#ffff00" stroke="#ffff00" d="M4.282782907858854 64.1600687416571 L4.282782907858854 64.1600687416571 L3.1600566538499804 61.565601448008415 L3.1600566538499804 61.565601448008415 z"/>
<path fill="#ffff00" stroke="#ffff00" d="M5.566201409300567 66.67891928192549 L5.566201409300567 66.67891928192549 L4.2827828554085094 64.16006854509669 L4.2827828554085094 64.16006854509669 z"/>
<path fill="#ffff00" stroke="#ffff00" d="M7.005244335334406 69.11220743609037 L7.005244335334406 69.11220743609037 L5.566201598182112 66.67891905483773 L5.566201598182112 66.67891905483773 z"/>
<path fill="#ffff00" stroke="#ffff00" d="M8.594238448215936 71.45034105459135 L8.594238448215936 71.45034105459135 L7.005244257848984 69.11220710636881 L7.005244257848984 69.11220710636881 z"/>
<path fill="#ffff00" stroke="#ffff00" d="M10.326902767669555 73.68407785317542 L10.326902767669555 73.68407785317542 L8.594238802447359 71.45034092891703 L8.594238802447359 71.45034092891703 z"/>
<path fill="#ffff00" stroke="#ffff00" d="M12.196411109374816 75.80461902195452 L12.196411109374816 75.80461902195452 L10.326902521752515 73.68407777677608 L10.326902521752515 73.68407777677608 z"/>
<path fill="#ffff00" stroke="#ffff00" d="M14.195380999622742 77.80358900037726 L14.195380999622742 77.80358900037726 L12.196410999622753 75.80461900037724 L12.196410999622753 75.80461900037724 z"/>
<path fill="#ffff00" stroke="#ffff00" d="M16.3159222232239 79.67309747824748 L16.3159222232239 79.67309747824748 L14.195380978045467 77.80358889062518 L14.195380978045467 77.80358889062518 z"/>
<path fill="#ffff00" stroke="#ffff00" d="M18.549659071082942 81.40576119755265 L18.549659071082942 81.40576119755265 L16.315922146824573 79.67309723233043 L16.315922146824573 79.67309723233043 z"/>
<path fill="#ffff00" stroke="#ffff00" d="M20.88779289363116 82.99475574215103 L20.88779289363116 82.99475574215103 L18.549658945408638 81.40576155178405 L18.549658945408638 81.40576155178405 z"/>
<path fill="#ffff00" stroke="#ffff00" d="M23.32108094516225 84.43379840181791 L23.32108094516225 84.43379840181791 L20.88779256390961 82.9947556646656 L20.88779256390961 82.9947556646656 z"/>
<path fill="#ffff00" stroke="#ffff00" d="M25.839931454903287 85.71721714459152 L25.839931454903287 85.71721714459152 L23.3210807180745 84.43379859069944 L23.3210807180745 84.43379859069944 z"/>
<path fill="#ffff00" stroke="#ffff00" d="M28.434398551991567 86.83994334615005 L28.434398551991567 86.83994334615005 L25.839931258342883 85.71721709214115 L25.839931258342883 85.71721709214115 z"/>
<path fill="#ffff00" stroke="#ffff00" d="M31.094238424842057 87.79754437516948 L31.094238424842057 87.79754437516948 L28.434398846718015 86.83994320336393 L28.434398846718015 86.83994320336393 z"/>
<path fill="#ffff00" stroke="#ffff00" d="M33.80895901384208 88.58624339437782 L33.80895901384208 88.58624339437782 L31.094238764282697 87.79754425336684 L31.094238764282697 87.79754425336684 z"/>
<path fill="#ffff00" stroke="#ffff00" d="M36.567840831501265 89.20292628007715 L36.567840831501265 89.20292628007715 L33.80895928658991 88.58624319161325 L33.80895928658991 88.58624319161325 z"/>
<path fill="#ffff00" stroke="#ffff00" d="M39.35999986896632 89.64516082731404 L39.35999986896632 89.64516082731404 L36.56784059498577 89.20292624340766 L36.56784059498577 89.20292624340766 z"/>
<path fill="#ffff00" stroke="#ffff00" d="M39.3599998936837 89.64516112470892 L39.3599998936837 89.64516112470892 L42.17442970968406 89.91120307122175 L42.17442970968406 89.91120307122175 z"/>
<path fill="#ffff00" stroke="#ffff00" d="M39.36 89.64516 L42.17443 89.9112 L45 90 L47.82557 89.9112 L50.64 89.64516 L53.43216 89.20293 L56.19104 88.58624 L58.90576 87.79754 L61.5656 86.83994 L64.16007 85.71722 L66.67892 84.4338 L69.11221 82.99476 L71.45034 81.40576 L73.68408 79.6731 L75.80462 77.80359 L77.80359 75.80462 L79.6731 73.68408 L81.40576 71.45034 L82.99476 69.11221 L84.4338 66.67892 L85.71722 64.16007 L86.83994 61.5656 L87.79754 58.90576 L88.58624 56.19104 L89.20293 53.43216 L89.64516 50.64 L89.9112 47.82557 L90 45 L89.9112 42.17443 L89.64516 39.36 L89.20293 36.56784 L88.58624 33.80896 L87.79754 31.09424 L86.83994 28.4344 L85.71722 25.83993 L84.4338 23.32108 L82.99476 20.88779 L81.40576 18.54966 L79.6731 16.31592 L77.80359 14.19538 L75.80462 12.19641 L73.68408 10.3269 L71.45034 8.59424 L69.11221 7.00524 L66.67892 5.5662 L64.16007 4.28278 L61.5656 3.16006 L58.90576 2.20246 L56.19104 1.41376 L53.43216 0.79707 L50.64 0.35484 L47.82557 0.0888 L45 0 L42.17443 0.0888 L39.36 0.35484 L36.56784 0.79707 L33.80896 1.41376 L31.09424 2.20246 L28.4344 3.16006 L25.83993 4.28278 L23.32108 5.5662 L20.88779 7.00524 L18.54966 8.59424 L16.31592 10.3269 L14.19538 12.19641 L12.19641 14.19538 L10.3269 16.31592 L8.59424 18.54966 L7.00524 20.88779 L5.5662 23.32108 L4.28278 25.83993 L3.16006 28.4344 L2.20246 31.09424 L1.41376 33.80896 L0.79707 36.56784 L0.35484 39.36 L0.0888 42.17443 L0 45 L0.0888 47.82557 L0.35484 50.64 L0.79707 53.43216 L1.41376 56.19104 L2.20246 58.90576 L3.16006 61.5656 L4.28278 64.16007 L5.5662 66.67892 L7.00524 69.11221 L8.59424 71.45034 L10.3269 73.68408 L12.19641 75.80462 L14.19538 77.80359 L16.31592 79.6731 L18.54966 81.40576 L20.88779 82.99476 L23.32108 84.4338 L25.83993 85.71722 L28.4344 86.83994 L31.09424 87.79754 L33.80896 88.58624 L36.56784 89.20293 z"/>
<path fill="#000000" stroke="#000000" d="M41.05644 54.18958 L39.28732 53.20763 L37.75207 51.88967 L36.51356 50.28964 L35.62248 48.47305 L35.11532 46.51428 L35.01283 44.49351 L35.31923 42.49347 L36.02195 40.59606 L37.09224 38.87894 L38.48628 37.41242 L40.14698 36.25653 L42.00637 35.45861 L43.98832 35.05131 L46.01168 35.05131 L47.99363 35.45861 L49.85302 36.25653 L51.51372 37.41242 L52.90776 38.87894 L53.97805 40.59606 L54.68077 42.49347 L54.98717 44.49351 L54.88468 46.51428 L54.37752 48.47305 L53.48644 50.28964 L52.24793 51.88967 L50.71268 53.20763 L48.94356 54.18958 L47.01299 54.7953 L45 55 L42.98701 54.7953 z"/>
<path fill="#000000" stroke="#000000" d="M47.01298989175201 54.79529893551058 L47.01298989175201 54.79529893551058 L45 55.00000000000003 L45 55.00000000000003 z"/>
<path fill="#000000" stroke="#000000" d="M42.987010108247986 54.79529893551058 L42.987010108247986 54.79529893551058 L44.99999999999999 55.00000000000002 L44.99999999999999 55.00000000000002 z"/>
<path fill="#000000" stroke="#000000" d="M53.48644166016882 50.28964128506632 L53.48644166016882 50.28964128506632 L52.24792827778295 51.889668666904775 L52.24792827778295 51.889668666904775 z"/>
<path fill="#000000" stroke="#000000" d="M50.71268309321444 53.20763360316354 L50.71268309321444 53.20763360316354 L52.24792869728712 51.889668482521145 L52.24792869728712 51.889668482521145 z"/>
<path fill="#000000" stroke="#000000" d="M54.37752206489327 48.47305101287851 L54.37752206489327 48.47305101287851 L53.48644211637573 50.289641038131855 L53.48644211637573 50.289641038131855 z"/>
<path fill="#000000" stroke="#000000" d="M48.94355885942876 54.18957794508434 L48.94355885942876 54.18957794508434 L50.71268237872706 53.207634285645064 L50.71268237872706 53.207634285645064 z"/>
<path fill="#000000" stroke="#000000" d="M54.88468249962919 46.51428064719884 L54.88468249962919 46.51428064719884 L54.37752185197763 48.47305047951023 L54.37752185197763 48.47305047951023 z"/>
<path fill="#000000" stroke="#000000" d="M48.94355933207818 54.18957787117927 L48.94355933207818 54.18957787117927 L47.01298940210881 54.79529809438301 L47.01298940210881 54.79529809438301 z"/>
<path fill="#000000" stroke="#000000" d="M54.98716543743848 44.493510698958715 L54.98716543743848 44.493510698958715 L54.68077046128315 42.49346992933402 L54.68077046128315 42.49346992933402 z"/>
<path fill="#000000" stroke="#000000" d="M53.97804644468388 40.596061316744496 L53.97804644468388 40.596061316744496 L54.68076952191553 42.493470177063045 L54.68076952191553 42.493470177063045 z"/>
<path fill="#000000" stroke="#000000" d="M53.97804736434761 40.59606164281469 L53.97804736434761 40.59606164281469 L52.907758027089066 38.87894122972479 L52.907758027089066 38.87894122972479 z"/>
<path fill="#000000" stroke="#000000" d="M54.98716499894764 44.493509746375324 L54.98716499894764 44.493509746375324 L54.884683122413584 46.51428015835089 L54.884683122413584 46.51428015835089 z"/>
<path fill="#000000" stroke="#000000" d="M49.853018077914975 36.2565327615349 L49.853018077914975 36.2565327615349 L51.51372215062842 37.41241691010783 L51.51372215062842 37.41241691010783 z"/>
<path fill="#000000" stroke="#000000" d="M51.513723148535085 37.41241700709422 L51.513723148535085 37.41241700709422 L52.907758530919374 38.878941396465265 L52.907758530919374 38.878941396465265 z"/>
<path fill="#000000" stroke="#000000" d="M46.011680768130255 35.05130626223485 L46.011680768130255 35.05130626223485 L47.993630555394446 35.45860729741931 L47.993630555394446 35.45860729741931 z"/>
<path fill="#000000" stroke="#000000" d="M47.99363112042844 35.45860738909299 L47.99363112042844 35.45860738909299 L49.853018550651434 36.25653337738154 L49.853018550651434 36.25653337738154 z"/>
<path fill="#000000" stroke="#000000" d="M42.00636887957157 35.45860738909302 L42.00636887957157 35.45860738909302 L40.146981449348566 36.25653337738155 L40.146981449348566 36.25653337738155 z"/>
<path fill="#000000" stroke="#000000" d="M43.98831923186974 35.05130626223487 L43.98831923186974 35.05130626223487 L42.00636944460555 35.45860729741933 L42.00636944460555 35.45860729741933 z"/>
<path fill="#000000" stroke="#000000" d="M43.98832 35.051306766081076 L43.98832 35.051306766081076 L46.01168 35.051306766081076 L46.01168 35.051306766081076 z"/>
<path fill="#000000" stroke="#000000" d="M37.092241469080655 38.878941396465294 L37.092241469080655 38.878941396465294 L38.48627685146494 37.41241700709425 L38.48627685146494 37.41241700709425 z"/>
<path fill="#000000" stroke="#000000" d="M38.4862778493716 37.41241691010785 L38.4862778493716 37.41241691010785 L40.14698192208503 36.25653276153493 L40.14698192208503 36.25653276153493 z"/>
<path fill="#000000" stroke="#000000" d="M36.021952635652426 40.59606164281472 L36.021952635652426 40.59606164281472 L37.09224197291097 38.87894122972481 L37.09224197291097 38.87894122972481 z"/>
<path fill="#000000" stroke="#000000" d="M35.115316877586466 46.514280158350886 L35.115316877586466 46.514280158350886 L35.01283500105241 44.493509746375324 L35.01283500105241 44.493509746375324 z"/>
<path fill="#000000" stroke="#000000" d="M35.3192295387169 42.493469929334026 L35.3192295387169 42.493469929334026 L35.01283456256157 44.49351069895872 L35.01283456256157 44.49351069895872 z"/>
<path fill="#000000" stroke="#000000" d="M35.31923047808451 42.49347017706306 L35.31923047808451 42.49347017706306 L36.02195355531616 40.59606131674452 L36.02195355531616 40.59606131674452 z"/>
<path fill="#000000" stroke="#000000" d="M36.51355788362431 50.28964103813183 L36.51355788362431 50.28964103813183 L35.622477935106765 48.473051012878486 L35.622477935106765 48.473051012878486 z"/>
<path fill="#000000" stroke="#000000" d="M35.62247814802242 48.47305047951021 L35.62247814802242 48.47305047951021 L35.11531750037086 46.514280647198824 L35.11531750037086 46.514280647198824 z"/>
<path fill="#000000" stroke="#000000" d="M37.75207172221708 51.88966866690475 L37.75207172221708 51.88966866690475 L36.51355833983121 50.28964128506629 L36.51355833983121 50.28964128506629 z"/>
<path fill="#000000" stroke="#000000" d="M39.287316906785584 53.207633603163515 L39.287316906785584 53.207633603163515 L37.75207130271289 51.88966848252112 L37.75207130271289 51.88966848252112 z"/>
<path fill="#000000" stroke="#000000" d="M41.05644066792182 54.18957787117925 L41.05644066792182 54.18957787117925 L42.987010597891185 54.795298094382986 L42.987010597891185 54.795298094382986 z"/>
<path fill="#000000" stroke="#000000" d="M41.056441140571245 54.18957794508432 L41.056441140571245 54.18957794508432 L39.28731762127294 53.20763428564504 L39.28731762127294 53.20763428564504 z"/>
<path fill="#000000" stroke="#000000" d="M39.28732 53.20763 L41.05644 54.18958 L42.98701 54.7953 L45 55 L47.01299 54.7953 L48.94356 54.18958 L50.71268 53.20763 L52.24793 51.88967 L53.48644 50.28964 L54.37752 48.47305 L54.88468 46.51428 L54.98717 44.49351 L54.68077 42.49347 L53.97805 40.59606 L52.90776 38.87894 L51.51372 37.41242 L49.85302 36.25653 L47.99363 35.45861 L46.01168 35.05131 L43.98832 35.05131 L42.00637 35.45861 L40.14698 36.25653 L38.48628 37.41242 L37.09224 38.87894 L36.02195 40.59606 L35.31923 42.49347 L35.01283 44.49351 L35.11532 46.51428 L35.62248 48.47305 L36.51356 50.28964 L37.75207 51.88967 z"/>
</svg>